<svg xmlns="http://www.w3.org/2000/svg" width="28" height="28" fill="none" xmlns:v="https://vecta.io/nano"><path d="M24.5 24.5h-21a1.75 1.75 0 0 1-1.75-1.75v-14A1.75 1.75 0 0 1 3.5 7h21a1.75 1.75 0 0 1 1.75 1.75v14a1.75 1.75 0 0 1-1.75 1.75z" fill="#abbee7"/><path d="M9.625 4.375V7h1.75V5.25h5.25V7h1.75V4.375c0-.483-.392-.875-.875-.875h-7c-.483 0-.875.392-.875.875z" fill="#3c4b5d"/><path d="M11.375 4.375c0-.483.392-.875.875-.875H10.5c-.483 0-.875.392-.875.875V7h1.75V5.25v-.875z" fill="#3c3c3c"/><path d="M24.5 7h-21a1.75 1.75 0 0 0-1.75 1.75v4.375c0 2.416 1.959 4.375 4.375 4.375h15.75c2.416 0 4.375-1.959 4.375-4.375V8.75A1.75 1.75 0 0 0 24.5 7z" fill="#7e92bc"/><path d="M12 17.5a1.5 1.5 0 0 1 1.5-1.5h1a1.5 1.5 0 0 1 1.5 1.5h0a1.5 1.5 0 0 1-1.5 1.5h-1a1.5 1.5 0 0 1-1.5-1.5h0z" fill="#fff"/></svg>