<svg xmlns="http://www.w3.org/2000/svg" width="24" height="24" fill="none" xmlns:v="https://vecta.io/nano"><g clip-path="url(#A)"><path d="M23.48 10.006l-1.591-6.364c-.099-.378-.288-.706-.557-.975s-.597-.457-.975-.557L13.993.52a2.12 2.12 0 0 0-2.009.557L.619 12.442c-.825.825-.825 2.158 0 2.983l7.955 7.955c.825.825 2.158.825 2.983 0l11.366-11.366a2.12 2.12 0 0 0 .557-2.009zm-7.945-1.541c-.825-.825-.825-2.158 0-2.983s2.158-.825 2.983 0 .825 2.158 0 2.983-2.158.825-2.983 0z" fill="#abbee7"/><path d="M22.924 12.015L11.558 23.381c-.825.825-2.158.825-2.983 0l-3.977-3.977L15.536 8.465c.825.825 2.158.825 2.983 0s.825-2.158 0-2.983l2.814-2.814c.269.268.457.597.557.975l1.591 6.364a2.12 2.12 0 0 1-.557 2.009z" fill="#7e92bc"/><g fill="#fff"><path d="M8.574 11.447a2.11 2.11 0 0 1 2.983-2.983 2.11 2.11 0 0 1-2.983 2.983zm1.989-1.989c-.274-.274-.72-.274-.994 0s-.274.72 0 .994.72.274.994 0 .274-.72 0-.994zm-.993 8.951c-.822-.823-.822-2.161 0-2.983s2.161-.822 2.983 0 .822 2.161 0 2.983-2.161.822-2.983 0zm1.989-1.989c-.274-.274-.72-.274-.994 0s-.274.72 0 .994.72.274.994 0 .274-.72 0-.994zm3.558-2.783l-5.35.596-3.6.398a.67.67 0 0 1-.577-.199c-.109-.109-.179-.258-.199-.418-.05-.388.239-.736.617-.776l5.35-.597 3.6-.398c.388-.05.736.239.776.617.05.388-.239.736-.617.776z"/></g><path d="M23.789 1.203l-5.274 5.274c-.278.278-.716.278-.994 0s-.278-.716 0-.994L22.795.209c.278-.278.716-.278.994 0s.278.716 0 .994z" fill="#3e5959"/><path d="M17.523 6.478L23.791.21c.278.278.278.716 0 .994l-5.274 5.274c-.278.278-.716.278-.994 0z" fill="#3c4b5d"/></g><defs><clipPath id="A"><path fill="#fff" d="M0 0h24v24H0z"/></clipPath></defs></svg>