<svg xmlns="http://www.w3.org/2000/svg" width="24" height="24" fill="none" xmlns:v="https://vecta.io/nano"><path d="M11.678 23.36c-.281 0-.561-.107-.775-.321-.428-.428-.428-1.122 0-1.55l9.3-9.3c1.035-1.035 1.605-2.411 1.605-3.875s-.57-2.84-1.605-3.875a5.49 5.49 0 0 0-7.75 0l-9.3 9.3c-1.282 1.282-1.282 3.368 0 4.65s3.368 1.282 4.65 0l8.525-8.525a1.1 1.1 0 0 0 0-1.55 1.1 1.1 0 0 0-1.55 0l-5.575 5.575c-.428.428-1.122.428-1.55 0s-.428-1.122 0-1.55l5.575-5.575c1.282-1.282 3.368-1.282 4.65 0s1.282 3.368 0 4.65l-8.525 8.525c-1.068 1.068-2.472 1.602-3.875 1.603a5.46 5.46 0 0 1-3.875-1.603 5.49 5.49 0 0 1 0-7.75l9.3-9.3c2.992-2.991 7.859-2.991 10.85 0A7.62 7.62 0 0 1 24 8.313a7.62 7.62 0 0 1-2.247 5.425l-9.3 9.301c-.214.214-.495.321-.775.321z" fill="#abbee7"/><path d="M16.328 8.311a1.1 1.1 0 0 1 0 1.55l-8.525 8.525a3.28 3.28 0 0 1-2.506.956l-1.819 1.819a5.5 5.5 0 0 0 2.001.377c1.403 0 2.807-.534 3.875-1.602l8.525-8.525c1.282-1.282 1.282-3.368 0-4.65l-1.55 1.55zm5.425 5.425A7.62 7.62 0 0 0 24 8.311a7.62 7.62 0 0 0-2.247-5.425l-1.55 1.55c1.035 1.035 1.605 2.411 1.605 3.875s-.57 2.84-1.605 3.875l-9.3 9.301c-.428.428-.428 1.122 0 1.55a1.09 1.09 0 0 0 1.55 0l9.3-9.301z" fill="#7e92bc"/></svg>