<svg aria-hidden="true" style="position: absolute; width: 0; height: 0; overflow: hidden;" version="1.1" xmlns="http://www.w3.org/2000/svg" xmlns:xlink="http://www.w3.org/1999/xlink">
<defs>
<symbol id="wpbdp-heart-solid-icon" viewBox="0 0 20 20"><path d="M10 19.4L8.6 18C3.4 13.4 0 10.3 0 6.5 0 3.5 2.4 1 5.5 1A6 6 0 0 1 10 3a6 6 0 0 1 4.5-2c3 0 5.5 2.4 5.5 5.5 0 3.8-3.4 6.9-8.6 11.5L10 19.3z"/></symbol>
</defs>
<symbol id="wpbdp-step1-icon" viewBox="0 0 100 100"><circle cx="50" cy="50" r="50" fill="#ccc"/><path data-name="1" d="M47.48 67.35v-22.7h-8.8V39.3a16.779 16.779 0 003.57-.27 9.344 9.344 0 003.1-1.15 7.565 7.565 0 002.33-2.18 7.737 7.737 0 001.25-3.35h5.65v35h-7.1z" fill="#fff" fill-rule="evenodd"/></symbol>
<symbol id="wpbdp-step2-icon" viewBox="0 0 100 100"><circle cx="50" cy="50" r="50" fill="#ccc"/><path data-name="2" d="M38.53 41.23a12.807 12.807 0 012.4-4.5 10.792 10.792 0 014.02-3 13.616 13.616 0 015.58-1.08 13.905 13.905 0 014.57.75 11.871 11.871 0 013.83 2.15A10.329 10.329 0 0161.55 39a10.589 10.589 0 01.98 4.6 11 11 0 01-.85 4.55 12.168 12.168 0 01-2.25 3.38 18.894 18.894 0 01-3.18 2.67c-1.18.8-2.37 1.59-3.57 2.38s-2.37 1.62-3.5 2.52a16.035 16.035 0 00-3 3.15h16.55v6.1h-25.7a14.681 14.681 0 01.87-5.3 14.2 14.2 0 012.38-4.02 20.5 20.5 0 013.52-3.28c1.35-1 2.78-2.01 4.28-3.05.77-.53 1.58-1.07 2.45-1.62a15.537 15.537 0 002.37-1.83A9.286 9.286 0 0054.7 47a5.5 5.5 0 00.73-2.85 5.006 5.006 0 00-5.25-5.4 4.569 4.569 0 00-2.63.73 5.345 5.345 0 00-1.72 1.9 9.023 9.023 0 00-.93 2.6 15.122 15.122 0 00-.27 2.82h-6.8a16.741 16.741 0 01.7-5.57z" fill="#fff" fill-rule="evenodd"/></symbol>
<symbol id="wpbdp-step-complete-icon" viewBox="0 0 56.18 56.18"><circle cx="28.09" cy="28.09" r="25" fill="#6fb05a" stroke="#6ab255" stroke-width="6"/><path d="M36.93 19.88L24.09 32.72 19.37 28a.6.6 0 00-.83 0l-1.38 1.39a.573.573 0 000 .82l6.52 6.52a.573.573 0 00.82 0l14.64-14.64a.585.585 0 000-.83l-1.38-1.38a.585.585 0 00-.83 0z" fill="#fff" fill-rule="evenodd"/></symbol>
<symbol id="wpbdp-checkmark-icon" viewBox="0 0 10 8"><title>checkmark</title><path d="M9.2 1c.2.3.2.7 0 1l-5 5c-.3.2-.6.2-.9 0L.8 4.3a.6.6 0 0 1 .9-.8l2 2 4.6-4.5c.3-.3.6-.3.9 0Z"/></symbol>
<symbol id="wpbdp-arrowup1-icon" viewBox="0 0 20 20"><title>arrowup1</title><path d="m15 14-5-5-5 5-2-1 7-7 7 7-2 1Z"/></symbol>
<symbol id="wpbdp-arrowdown1-icon" viewBox="0 0 20 20"><title>arrowdown1</title><path d="M5 6l5 5 5-5 2 1-7 7-7-7 2-1z" /></symbol>
<symbol id="wpbdp-user-icon" viewBox="0 0 448 512"><path d="M272 304h-96C79 304 0 383 0 480c0 18 14 32 32 32h384c18 0 32-14 32-32 0-97-79-176-176-176zM49 464c8-63 62-112 127-112h96c65 0 119 49 127 112H49zm175-208a128 128 0 1 0 0-256 128 128 0 0 0 0 256zm0-208a80 80 0 1 1 0 160 80 80 0 0 1 0-160z"/></symbol>
<symbol id="wpbdp-sample-form-icon" viewBox="1.5 1.5 16.8 16.8" fill="none"><path stroke="currentColor" stroke-linecap="round" stroke-linejoin="round" d="M15.833 2.5H4.167c-.92 0-1.667.746-1.667 1.667v11.666c0 .92.746 1.667 1.667 1.667h11.666c.92 0 1.667-.746 1.667-1.667V4.167c0-.92-.746-1.667-1.667-1.667ZM2.5 7.5h15M7.5 17.5v-10" stroke-width="1.5"/></symbol>
<symbol id="wpbdp-puzzle-icon-thin-icon" viewBox="0 0 16 16" fill="none"><path stroke="currentColor" stroke-linecap="round" stroke-linejoin="round" stroke-width="1.5" d="M2.75 15.25h8.5a2 2 0 0 0 2-2v-2.23l.02-.02c1.1 0 1.98-.88 1.98-1.98v-.04c0-1.1-.88-1.98-1.98-1.98a.02.02 0 0 1-.02-.02V4.75a2 2 0 0 0-2-2H9.03A.03.03 0 0 1 9 2.72C9 1.63 8.12.75 7.03.75h-.06C5.88.75 5 1.63 5 2.72c0 .02-.01.03-.03.03H2.75a2 2 0 0 0-2 2v8.5c0 1.1.9 2 2 2Z"/></symbol>
<symbol id="wpbdp-field-colors-style-icon" viewBox="0 0 20 20" fill="none"><path d="M9.5 16C9.5 16.2761 9.27614 16.5 9 16.5C8.72386 16.5 8.5 16.2761 8.5 16C8.5 15.7239 8.72386 15.5 9 15.5C9.27614 15.5 9.5 15.7239 9.5 16Z" stroke="currentColor" stroke-linecap="round" stroke-linejoin="round"/><path d="M4.75 6.75C4.75 5.64543 5.64543 4.75 6.75 4.75H11.25C12.3546 4.75 13.25 5.64543 13.25 6.75V17.25C13.25 18.3546 12.3546 19.25 11.25 19.25H6.75C5.64543 19.25 4.75 18.3546 4.75 17.25V6.75Z" stroke="currentColor" stroke-width="1.5" stroke-linecap="round" stroke-linejoin="round"/><path d="M15.7502 15.25L18.6802 12.2581C19.4308 11.4917 19.4431 10.2696 18.708 9.48831L15.628 6.21455C14.8731 5.41212 13.1904 5.79956 13.1904 5.79956" stroke="currentColor" stroke-width="1.5" stroke-linecap="round" stroke-linejoin="round"/></symbol>
</svg>
