<svg version="1.1" id="Layer_1" xmlns="http://www.w3.org/2000/svg" xmlns:xlink="http://www.w3.org/1999/xlink" x="0" y="0" viewBox="0 0 512 512" xml:space="preserve" style="height:200px;width:200px"><style>.st1,.st2,.st3,.st4,.st5,.st6{fill-rule:evenodd;clip-rule:evenodd;fill:#414b5a}.st2,.st3,.st4,.st5,.st6{fill:#596980}.st3,.st4,.st5,.st6{fill:#eef2f6}.st4,.st5,.st6{fill:#fff}.st5,.st6{fill:#ee8744}.st6{fill:#f3b06a}.st9{fill:#363d46}</style><circle cx="255.7" cy="255.7" r="255.7" fill="#eff3f7"/><defs><circle id="SVGID_1_" cx="255.4" cy="256" r="255.7"/></defs><clipPath id="SVGID_2_"><use xlink:href="#SVGID_1_" overflow="visible"/></clipPath><g clip-path="url(#SVGID_2_)"><g id="Arms_3_"><path id="Arm_-_Left_1_" class="st1" d="M239 388.6c-25.4 21.4-75.4 50-95 45-21.3-5.6-30.6-39.8-40.4-45.3-6.4-3.5-21-4-14.9-15.3 3.3-6 12.3-10.9 20.7-11.5 12.7-.9 28.5 12.9 32 12.9 7.7.1 35-30.9 56.8-39.5 28.3-11.1 71.2 28.1 40.7 53.8z"/><path id="Arm_-_Right_1_" class="st1" d="M300 382.1c29.4 15.6 84.3 33 102.4 23.9 19.6-10 21.5-45.3 30-52.8 5.4-4.7 19.6-8.3 11.2-18-4.4-5.2-14.4-8.1-22.6-7-12.6 1.9-25.2 18.6-28.6 19.4-7.6 1.7-40.8-22.8-63.9-26.6-30-4.9-63.5 42.5-28.4 61.1z"/></g><g id="Body_3_"><path class="st1" d="M208.8 334.6c-35.6 26.2-53 117.8-38.8 183.4 3.4 15.5 7.5 20 31.2 22.7 41.5 4.7 128.2-4.5 167.8-17.9 22.6-7.6 25.6-12.9 25.7-28.8.1-67.1-36.3-153-76.6-171-18.3-8.4-93.1-.4-109.3 11.6z"/><path class="st1" d="M217.3 346c-26.4 19.5-36.4 79.3-37.8 109.4-.9 19.7.1 40.3 4.4 59.6 2 9.1 1.6 9.7 19 11.7 39.5 4.4 123.8-4.5 161.5-17.3 16.6-5.5 16-6 16-15.4a255 255 0 00-34.8-123.3c-7.6-12.4-19.8-28.7-33.3-34.8-13.5-6-83.2 1.4-95 10.1z"/><path class="st2" d="M217.3 346c-26.4 19.5-36.4 79.3-37.8 109.4-.9 19.7.1 40.3 4.4 59.6 2 9.1 1.6 9.7 19 11.7a423 423 0 0081.4-2.2l-20.2-189c-20.6 2.1-41 6.1-46.9 10.5z"/><g><path class="st3" d="M199.7 457.5c2.3 12.7 1.4 12.7 15.7 14.7 15.3 2.1 39.4 1.4 63.2-1s47.4-7 62-12.4c13.5-5 12.7-4.7 12.2-17.6-5.4-31.3-24.6-91.2-51.3-105-5.3-2.7-21.4-2.5-37.4-.8s-31.8 5-36.4 8.7c-23 19.1-29.3 81.6-28 113.4z"/><path class="st4" d="M199.7 457.5c2.3 12.7 1.4 12.7 15.7 14.7 15.3 2.1 39.4 1.4 63.2-1l-14.5-135.8c-16 1.8-31.8 5-36.4 8.8-23 19-29.3 81.5-28 113.3z"/></g></g><g id="Feet_3_"><path class="st5" d="M215.5 547.7l-62.6 6.7c-3 .3-5.7-.7-7.8-3-2-2.1-2.9-5-2.5-7.9 3.2-20.1 20.5-32.8 39.9-36.8 12.3-2.5 21.7-.2 28.7 6.9 10.8 11 16.9 32.8 4.3 34.1z" id="Feet_-_Left_3_"/><g id="Feet_-_Right_3_"><path class="st5" d="M356.5 532.7l62.7-6.7a9 9 0 007-4.5 9 9 0 00.7-8.3c-7.3-19-26.8-27.8-46.7-27.6-12.5.2-21.3 4.4-26.6 12.8-8.4 13.1-9.6 35.6 3 34.3z"/><path class="st6" d="M369.4 495.2a46.1 46.1 0 0116.6 26.5l31.5-3.4c.8 0 1-.8.8-1.6-7.7-18.2-29.5-25-49-21.5z"/></g></g><g id="Head_5_"><g id="Head_8_"><path class="st1" d="M119.4 101.8C94 114 69.9 209 84.7 285.8c3.5 18 14.5 38.4 49.5 45.5 68 13.6 190 11.5 257.3-4.7 34.7-8.2 45.1-29 47.8-47 12-77.4-15.5-171.5-41.2-182.8-65.2-28.6-214.5-26-278.7 5z"/><path class="st1" d="M396 119c25.2 37.2 32 115.6 25.3 157.8-3 19.2-15.8 27.8-34 32.2-65.5 15.6-183.5 17.7-249.6 4.5-18.4-3.7-31.4-12-35.1-31-8-42-4.2-120.5 19.8-158.7 3.9-6.1 6.9-6.8 13.5-9.4C196.5 90.5 320.7 88.3 382 110c6.8 2.4 9.9 3 14 9z"/><path class="st2" d="M122.4 123.8c-24 38.2-27.8 116.8-19.8 158.7 3.7 19 16.7 27.3 35.1 31 33 6.6 79 9.5 125 8.6l-4-227c-46.3.8-92.5 7.4-122.7 19.3-6.7 2.6-9.7 3.3-13.6 9.4z"/><g><path class="st3" d="M262.8 322c-34.4.7-69-.8-97.8-4.4a47.6 47.6 0 01-44-40.9c-5.6-30.6-2.7-82.6 4.1-110.9 13.7-56.1 111.1-62.2 134.7-10.1 5.4-13 18-23.4 31.3-27.3 22-6.5 83.2 30.6 103.7 32.5 7.9 28 12.7 79.9 8 110.9a47.7 47.7 0 01-42.4 42.4 715.5 715.5 0 01-97.6 7.9z"/><path class="st4" d="M259.8 155.7l3 166.4c-34.4.6-69-.9-97.8-4.5a47.6 47.6 0 01-44-40.9c-5.6-30.6-2.7-82.6 4.1-110.9 13.6-56 111.1-62.2 134.7-10.1z"/></g></g><g id="Eyes_5_">
						<path id="Eyes_6_" d="M329.3 212.1a20.8 20.8 0 1021.2 20.4l-.1-1.7-19.3.4 15.1-10.9a21 21 0 00-17-8.2zm-137 2.4a20.8 20.8 0 1021.3 20.5l-.1-1.8-19.4.4 15.2-11c-3.9-5-10-8.2-17-8z" fill-rule="evenodd" clip-rule="evenodd" fill="#363d46"/><g id="Eyeglasses_3_"><path class="st9" d="M41.4 174.8c1.1-4.5 8-5.6 20.3-7.9 21.5-4 55.8-7 88.8-7.3 21-.1 41.5.7 57.9 2.1a42 42 0 0134.3 18.4c4-1.4 13.3-3.3 17.5-3.5l4.1 8 .4 19.8-3.9 5.3c-3.1.1-8.8 1.2-10.7 3.7-.5 30.1-7.8 62.6-29.6 74.6-37.4 20.5-126.7 15-146-13.5a118.1 118.1 0 01-18.4-45c-.2-1.6-13.7-12.1-15-19.3-1.6-7.6-1.5-27.4.3-35.4zm49.2 95.4c17.3 17.6 90.3 25.5 123.2 6.7 17.8-10 22.4-38.2 21.9-64.5-.2-11-11.3-29.1-25.7-30.9a487.7 487.7 0 00-49.7-2.7c-30.1-.3-60 .4-85.8 6.5-8.3 2-7.4 11.4-6.7 20.5 1.3 18.4 9 50.3 22.8 64.4z"/><path class="st9" d="M478.6 167c-1.2-4.5-8-5.3-20.5-7.1a612.3 612.3 0 00-146.7 0 42 42 0 00-33.6 19.6c-4.1-1.3-13.4-2.8-17.6-2.9l-3.9 8.2.4 19.7 4.1 5.2c3.1 0 8.8.7 10.8 3.3 1.6 30 10.1 62.3 32.3 73.4 38.1 19.2 127 10.4 145.4-18.7 8.8-14 14.2-29 16.8-45.7.2-1.6 13.2-12.6 14.4-19.7 1.1-7.6.3-27.4-1.9-35.2zM433 264c-16.6 18.3-89.4 28.8-123 11.3-18.2-9.5-23.6-37.4-24.2-63.6-.1-11.1 10.2-29.5 24.6-31.9 15.6-2.4 32.6-3.6 49.5-4.4 30.1-1.4 60.1-1.8 86 3.5 8.4 1.6 7.8 11.1 7.4 20.3-.6 18.2-7 50.3-20.3 64.9z"/></g></g><g id="Beak_3_"><path class="st5" d="M239.4 287.3l17-21.4c3-3.6 7.8-3.7 10.7-.2l17.7 20.8-45.4.8z"/><path class="st6" d="M261.8 266.7l.3 20.2-17.5.3 14.6-18.4c.7-1 1.6-1.7 2.6-2.1z"/><path d="M233.2 290l21 19.7c2.4 2 5.3 3.2 8.4 3.1 3 0 6-1.2 8.2-3.4l20.4-20.5c2.5-2.4 1.3-5.7-2.1-5.6l-27 .4-26.8.5c-3.6.2-4.6 3.4-2 5.8z" fill-rule="evenodd" clip-rule="evenodd" fill="#c06028"/><path class="st5" d="M262.6 312.8c-3 0-6-1-8.3-3.1l-21-19.7c-2.7-2.4-1.6-5.7 1.8-5.8l27-.5.5 29.1z"/></g><g id="Hair_3_"><path class="st1" d="M217.4 83.3c-6.3-19.2-5.5-39.8 1-51.6 18.5 22.8 43 43 69.5 54.5-20.2.5-39.6.9-61.4 2.6-5.8.4-8.5-3.5-9.1-5.5z"/><path class="st2" d="M228.8 54.4l-7.3-7.6c-2 10.6-1.3 21 2.5 32.2 1 3 2 1 1.9.3-1-9.2.5-15.2 2.8-24.9z"/><g><path class="st1" d="M259.1 117.6c-23.1-26.3-22-80.4-1.9-104.9 26 44 46.1 54.1 71.6 70 2.2 1.5 1.8 6.5-1.5 6.8-33.7 3.7-55 10.9-68.2 28z"/><path class="st2" d="M263.5 38.5c-2.6-3.2-4.6-6.4-6.6-9.7a92.5 92.5 0 00-5.8 51.7c.2 1.3.9 2.8 1 .4.8-14 4.2-28.2 11.4-42.4z"/></g></g></g></g></svg>