<svg version="1.1" width="35" height="35" viewBox="0 0 35 35" fill="none" xmlns="http://www.w3.org/2000/svg">
<mask id="mask0_420_4710" style="mask-type:alpha" maskUnits="userSpaceOnUse" x="0" y="0" width="35" height="35">
<circle cx="17.5" cy="17.5" r="17.5" fill="#C4C4C4"/>
</mask>
<g mask="url(#mask0_420_4710)">
<circle cx="17.5" cy="17.5" r="17.5" fill="white"/>
<path fill-rule="evenodd" clip-rule="evenodd" d="M17.7278 26.4245C16.5243 29.9672 11.362 33.545 8.64936 33.19C7.78254 33.0729 7.98376 32.2341 8.49844 31.6644C10.5726 29.3664 11.5981 26.8498 13.2892 24.6259C14.6126 22.8975 18.6449 23.7324 17.7278 26.4245Z" fill="#3F4B5B"/>
<path fill-rule="evenodd" clip-rule="evenodd" d="M22.0195 27.2512C25.6493 28.0276 31.3495 25.4018 32.433 22.8736C32.7774 22.0699 31.9609 21.8045 31.214 21.9606C28.1917 22.5771 25.5178 22.1674 22.7625 22.4912C20.6187 22.7487 19.2604 26.6621 22.0195 27.2512Z" fill="#3F4B5B"/>
<path fill-rule="evenodd" clip-rule="evenodd" d="M14.5624 23.6423C12.0742 25.558 10.9481 32.1283 12.0471 36.8025C12.3141 37.9106 12.6005 38.2266 14.2916 38.3905C17.2364 38.6714 23.3777 37.8988 26.1639 36.8922C27.7621 36.3148 27.9672 35.9363 27.9556 34.8009C27.8782 29.998 25.1849 23.9115 22.3019 22.6629C20.9901 22.105 15.6924 22.7644 14.5624 23.6423Z" fill="#3F4B5B"/>
<path fill-rule="evenodd" clip-rule="evenodd" d="M15.1743 24.4444C13.3284 25.8763 12.7054 30.1642 12.6473 32.314C12.6086 33.7225 12.7131 35.1973 13.0343 36.5668C13.1852 37.2223 13.162 37.2652 14.3964 37.3783C17.2059 37.6475 23.1807 36.8906 25.8393 35.9347C27.004 35.5172 26.9692 35.4821 26.9576 34.811C26.915 31.9316 25.847 28.4553 24.3223 26.0324C23.7728 25.1584 22.8905 24.0074 21.9153 23.5821C20.944 23.1764 16.0063 23.8006 15.1743 24.4444Z" fill="#3F4B5B"/>
<path fill-rule="evenodd" clip-rule="evenodd" d="M15.1743 24.4443C13.3284 25.8762 12.7054 30.1641 12.6473 32.3139C12.6086 33.7224 12.7131 35.1972 13.0343 36.5667C13.1852 37.2222 13.162 37.2651 14.3964 37.3783C15.8012 37.5109 17.9953 37.39 20.174 37.1169L18.4984 23.6172C17.0317 23.8084 15.5883 24.1283 15.1743 24.4443Z" fill="#556981"/>
<path fill-rule="evenodd" clip-rule="evenodd" d="M14.0751 32.447C14.2531 33.3522 14.199 33.3522 15.2051 33.477C16.2964 33.6097 18.0068 33.5277 19.6901 33.3132C21.3812 33.1025 23.0491 32.7552 24.0745 32.3573C25.0226 31.9866 24.9684 31.9983 24.9181 31.0775C24.4963 28.8419 23.0491 24.5891 21.1374 23.6371C20.762 23.4537 19.6166 23.481 18.4866 23.6215C17.3567 23.7658 16.2344 24.0234 15.9133 24.2965C14.3034 25.6855 13.9436 30.1762 14.0751 32.447Z" fill="#ECF1F5"/>
<path fill-rule="evenodd" clip-rule="evenodd" d="M14.0751 32.4485C14.2531 33.3537 14.199 33.3537 15.2051 33.4786C16.2963 33.6112 18.0068 33.5293 19.6901 33.3147L18.4905 23.6191C17.3605 23.7635 16.2383 24.021 15.9171 24.2941C14.3034 25.687 13.9435 30.1778 14.0751 32.4485Z" fill="white"/>
<path fill-rule="evenodd" clip-rule="evenodd" d="M25.9748 37.6331L30.1115 35.9281C30.305 35.8462 30.4443 35.694 30.5062 35.4794C30.5604 35.2727 30.5217 35.0698 30.3901 34.8981C29.5156 33.7393 28.018 33.5247 26.6713 33.9383C25.8161 34.1958 25.3014 34.6523 25.1079 35.3429C24.7945 36.4041 25.1466 37.9687 25.9748 37.6331Z" fill="#FC802E"/>
<path fill-rule="evenodd" clip-rule="evenodd" d="M26.1138 34.8109C26.6633 35.0138 27.5107 35.6615 27.77 36.2936L29.8558 35.4391C29.9061 35.4157 29.91 35.3611 29.879 35.3142C28.9851 34.2101 27.3676 34.1711 26.1138 34.8109Z" fill="#FDAC5C"/>
<path fill-rule="evenodd" clip-rule="evenodd" d="M27.6307 35.6668C29.0354 35.0894 30.3047 34.9606 30.475 35.3859C30.6453 35.8112 29.6546 36.6149 28.2499 37.1924C26.8529 37.7698 25.5759 37.8908 25.4056 37.4733C25.2354 37.0519 26.2338 36.2404 27.6307 35.6668Z" fill="#CD5A0C"/>
<path fill-rule="evenodd" clip-rule="evenodd" d="M5.47623 9.09542C3.87415 10.2854 3.44074 17.2928 5.4801 22.5015C5.95607 23.7149 7.0009 24.9985 9.52397 25.0336C14.4463 25.0882 22.921 23.3169 27.4099 21.288C29.7163 20.2463 30.1652 18.6505 30.1265 17.3396C29.9446 11.7368 26.783 5.48641 24.8443 5.04162C19.9181 3.89064 9.53945 6.06385 5.47623 9.09542Z" fill="#3F4B5B"/>
<path fill-rule="evenodd" clip-rule="evenodd" d="M24.9797 6.63125C27.2435 8.91371 28.7334 14.3331 28.834 17.3881C28.8766 18.781 28.1026 19.5574 26.8875 20.1036C22.5263 22.07 14.3302 23.7868 9.54335 23.7321C8.21216 23.7165 7.19055 23.3186 6.68362 22.0271C5.56526 19.1867 4.79905 13.6074 5.96771 10.6109C6.1612 10.1232 6.3663 10.0413 6.7881 9.77207C10.6927 7.29063 19.3299 5.48027 23.8885 6.19427C24.3954 6.2606 24.616 6.2567 24.9797 6.63125Z" fill="#3F4B5B"/>
<path fill-rule="evenodd" clip-rule="evenodd" d="M5.97549 10.6048C4.80683 13.6013 5.56916 19.1806 6.69139 22.021C7.19445 23.3125 8.21993 23.7104 9.55112 23.7261C11.9426 23.7534 15.1893 23.3398 18.378 22.6687L15.1081 6.77344C11.8923 7.44452 8.75396 8.51747 6.80361 9.75819C6.37407 10.0313 6.16123 10.1171 5.97549 10.6048Z" fill="#556981"/>
<path fill-rule="evenodd" clip-rule="evenodd" d="M18.3744 22.6735C15.9829 23.1729 13.5605 23.5279 11.4941 23.6684C9.79137 23.7815 8.50661 22.9622 7.8952 21.3781C7.09029 19.2986 6.61044 15.5959 6.7188 13.5241C6.92776 9.40011 13.6495 7.67559 15.9791 11.0271C16.7995 7.02401 23.6412 5.90814 25.4599 9.6069C26.3809 11.468 27.3948 15.0458 27.4799 17.2892C27.5457 18.9942 26.6866 20.2584 25.0846 20.8319C23.1226 21.5264 20.7621 22.1702 18.3744 22.6735Z" fill="#ECF1F5"/>
<path fill-rule="evenodd" clip-rule="evenodd" d="M15.9713 11.019L18.3705 22.6692C15.979 23.1726 13.5566 23.5315 11.4901 23.6681C9.78746 23.7812 8.50271 22.9619 7.89129 21.3778C7.08638 19.2982 6.60654 15.5956 6.71489 13.5238C6.92772 9.39197 13.6417 7.66745 15.9713 11.019Z" fill="white"/>
<path fill-rule="evenodd" clip-rule="evenodd" d="M22.6574 13.3872C21.8603 13.555 21.3417 14.3431 21.5081 15.1469C21.6745 15.9506 22.4562 16.4734 23.2534 16.3057C24.0583 16.1379 24.5691 15.3498 24.4027 14.546C24.3988 14.507 24.3795 14.468 24.3678 14.4212L23.0212 14.7021L23.9422 13.7345C23.6055 13.4341 23.1334 13.2858 22.6574 13.3872ZM13.1495 15.3771C12.3446 15.5449 11.8338 16.333 12.0002 17.1367C12.1666 17.9405 12.9483 18.4555 13.7454 18.2955C14.5426 18.1277 15.0611 17.3396 14.8947 16.5359C14.8909 16.4969 14.8793 16.4578 14.8676 16.411L13.521 16.6919L14.4342 15.7243C14.1014 15.4239 13.6255 15.2756 13.1495 15.3771Z" fill="#343D47"/>
<path d="M1.0025 15.2597C1.02572 14.9241 1.47847 14.7603 2.31047 14.4325C3.75388 13.8746 6.10281 13.1957 8.40918 12.7392C9.86807 12.4466 11.3037 12.2398 12.4685 12.1228C13.5482 12.0174 14.2447 12.1774 15.1077 12.9616C15.367 12.8094 15.9823 12.5519 16.2764 12.4856L16.6711 12.9889L16.9613 14.374L16.7562 14.7993C16.5356 14.85 16.1641 14.9944 16.0635 15.1973C16.4311 17.3197 16.3421 19.7036 14.9761 20.8312C12.6427 22.7703 6.34274 23.5702 4.62457 21.8261C3.79258 20.9873 3.18116 20.0197 2.75162 18.9038C2.71292 18.7985 1.63713 18.2327 1.44752 17.7528C1.23468 17.2378 0.971539 15.8488 1.0025 15.2597ZM5.68488 21.3072C7.11668 22.3177 12.3215 21.9042 14.3686 20.1484C15.4714 19.1964 15.4211 17.1637 15.0458 15.3221C14.8832 14.5457 13.881 13.422 12.8516 13.4883C11.7333 13.5664 10.5337 13.7458 9.35339 13.9565C7.24825 14.335 5.16634 14.7837 3.45204 15.5562C2.90254 15.8059 3.09216 16.4575 3.25855 17.0895C3.57974 18.3693 4.53944 20.5035 5.68488 21.3072Z" fill="#343D47"/>
<path d="M31.3798 8.90431C31.2289 8.60389 30.749 8.6351 29.8551 8.67022C28.3072 8.73654 25.8847 9.05648 23.59 9.56369C22.1388 9.88363 20.7341 10.2699 19.6196 10.6249C18.5864 10.9605 18.0176 11.3858 17.53 12.447C17.232 12.4119 16.5664 12.4236 16.2646 12.4821L16.1021 13.1025L16.3845 14.4876L16.7328 14.7958C16.9534 14.7529 17.3597 14.7334 17.53 14.8855C18.0331 16.9768 19.0547 19.1305 20.7457 19.6221C23.6558 20.461 29.7506 18.6662 30.6368 16.3799C31.0702 15.2718 31.2405 14.1442 31.2018 12.9425C31.1979 12.8255 31.9602 11.8813 31.9448 11.3623C31.9486 10.8122 31.639 9.43104 31.3798 8.90431ZM29.472 16.333C28.551 17.8352 23.621 19.5402 21.0514 18.752C19.6583 18.3268 18.9076 16.4384 18.5284 14.6046C18.3658 13.8204 18.8496 12.3963 19.8209 12.0373C20.885 11.6589 22.046 11.3428 23.2146 11.0658C25.3004 10.5664 27.3785 10.145 29.2592 10.1645C29.8628 10.1684 29.9402 10.8473 30.0408 11.495C30.2421 12.7903 30.2034 15.1313 29.472 16.333Z" fill="#343D47"/>
<path fill-rule="evenodd" clip-rule="evenodd" d="M16.2876 20.539L17.1854 18.8106C17.3402 18.5141 17.6807 18.4399 17.9322 18.6545L19.4337 19.8796L16.2876 20.539Z" fill="#FC802E"/>
<path fill-rule="evenodd" clip-rule="evenodd" d="M17.5729 18.7949L17.867 20.2112L16.6519 20.4609L17.4219 18.9744C17.4645 18.9003 17.5109 18.8378 17.5729 18.7949Z" fill="#FDAC5C"/>
<path fill-rule="evenodd" clip-rule="evenodd" d="M15.8894 20.804L17.6192 21.9121C17.8088 22.0369 18.0294 22.0642 18.2383 22.0174C18.4434 21.9745 18.6369 21.8496 18.7646 21.6663L19.9139 19.9612C20.0455 19.7544 19.9178 19.5438 19.6934 19.5906L17.8204 19.9807L15.9475 20.3787C15.7114 20.4294 15.6843 20.6791 15.8894 20.804Z" fill="#CD5A0C"/>
<path fill-rule="evenodd" clip-rule="evenodd" d="M18.2385 22.0249C18.0295 22.0679 17.8051 22.0366 17.6193 21.9196L15.8895 20.8115C15.6844 20.6828 15.7115 20.4331 15.9515 20.3862L17.8244 19.9883L18.2385 22.0249Z" fill="#FC802E"/>
<path fill-rule="evenodd" clip-rule="evenodd" d="M17.7781 5.30045C17.9097 3.85684 17.5382 2.43274 16.8958 1.71094C15.9748 3.59933 14.6049 5.38238 12.9409 6.6192C14.3495 6.33438 15.7039 6.04956 17.2286 5.82717C17.6388 5.76474 17.7665 5.45651 17.7781 5.30045Z" fill="#3F4B5B"/>
<path fill-rule="evenodd" clip-rule="evenodd" d="M16.5361 3.45823C16.6677 3.24754 16.7954 3.03295 16.9192 2.82227C17.2249 3.52846 17.341 4.26587 17.252 5.10472C17.2288 5.32712 17.1282 5.20617 17.1243 5.15545C17.0469 4.49607 16.8496 4.102 16.5361 3.45823Z" fill="#556981"/>
<path fill-rule="evenodd" clip-rule="evenodd" d="M15.4218 8.34679C16.6098 6.14236 15.6927 2.38898 13.9087 1C12.8097 4.48806 11.5636 5.49859 10.0544 7.01633C9.92287 7.14898 10.0312 7.49233 10.2595 7.46501C12.6626 7.188 14.2492 7.35187 15.4218 8.34679Z" fill="#3F4B5B"/>
<path fill-rule="evenodd" clip-rule="evenodd" d="M13.8813 2.90142C14.0129 2.6322 14.1019 2.3747 14.1871 2.11719C14.9146 3.07309 15.3248 4.41915 15.3944 5.63256C15.3983 5.7262 15.3789 5.85106 15.3286 5.68329C15.0577 4.71178 14.6011 3.77929 13.8813 2.90142Z" fill="#556981"/>
</g>
</svg>
