<svg width="594" height="151" viewBox="0 0 594 151" fill="none" xmlns="http://www.w3.org/2000/svg">
<g clip-path="url(#clip0_610_8148)">
<path d="M8 8H202V95H8V8Z" fill="white" fill-opacity="0.4"/>
<path d="M47 21H25C23.3431 21 22 22.3431 22 24V35C22 36.6569 23.3431 38 25 38H47C48.6569 38 50 36.6569 50 35V24C50 22.3431 48.6569 21 47 21Z" fill="#9EA9B8" fill-opacity="0.7"/>
<path opacity="0.5" d="M40 33.9999H31C30.5 33.9999 30 33.4999 30 32.8999V25.9999C30 25.3999 30.5 24.8999 31 24.8999H40C40.5 24.8999 41 25.3999 41 25.9999V32.9999C41 33.5999 40.5 34.0999 40 34.0999V33.9999ZM32.4 26.2999C31.7 26.2999 31.2 26.8999 31.2 27.5999C31.2 28.2999 31.7 28.8999 32.4 28.8999C33.1 28.8999 33.6 28.2999 33.6 27.5999C33.6 26.8999 33.1 26.2999 32.4 26.2999ZM31.4 32.4999H39.6V29.8999L37.7 27.8999C37.6812 27.8786 37.6582 27.8616 37.6323 27.8499C37.6064 27.8382 37.5784 27.8322 37.55 27.8322C37.5216 27.8322 37.4936 27.8382 37.4677 27.8499C37.4419 27.8616 37.4188 27.8786 37.4 27.8999L34.4 30.9999L33.3 29.6999C33.3 29.6469 33.2789 29.596 33.2414 29.5585C33.2039 29.521 33.153 29.4999 33.1 29.4999C33.047 29.4999 32.9961 29.521 32.9586 29.5585C32.9211 29.596 32.9 29.6469 32.9 29.6999L31.4 31.3999V32.4999Z" fill="white"/>
<path d="M165.5 22H58.5C57.6716 22 57 22.6716 57 23.5C57 24.3284 57.6716 25 58.5 25H165.5C166.328 25 167 24.3284 167 23.5C167 22.6716 166.328 22 165.5 22Z" fill="#B5C1D1" fill-opacity="0.7"/>
<path d="M144.5 28H58.5C57.6716 28 57 28.6716 57 29.5C57 30.3284 57.6716 31 58.5 31H144.5C145.328 31 146 30.3284 146 29.5C146 28.6716 145.328 28 144.5 28Z" fill="#B5C1D1" fill-opacity="0.7"/>
<path d="M101.5 34H58.5C57.6716 34 57 34.6716 57 35.5C57 36.3284 57.6716 37 58.5 37H101.5C102.328 37 103 36.3284 103 35.5C103 34.6716 102.328 34 101.5 34Z" fill="#B5C1D1" fill-opacity="0.7"/>
<path d="M101.5 40H58.5C57.6716 40 57 40.6716 57 41.5C57 42.3284 57.6716 43 58.5 43H101.5C102.328 43 103 42.3284 103 41.5C103 40.6716 102.328 40 101.5 40Z" fill="#B5C1D1" fill-opacity="0.7"/>
<path d="M47 61H25C23.3431 61 22 62.3431 22 64V75C22 76.6569 23.3431 78 25 78H47C48.6569 78 50 76.6569 50 75V64C50 62.3431 48.6569 61 47 61Z" fill="#9EA9B8" fill-opacity="0.7"/>
<path opacity="0.5" d="M40 73.9999H31C30.5 73.9999 30 73.4999 30 72.8999V65.9999C30 65.3999 30.5 64.8999 31 64.8999H40C40.5 64.8999 41 65.3999 41 65.9999V72.9999C41 73.5999 40.5 74.0999 40 74.0999V73.9999ZM32.4 66.2999C31.7 66.2999 31.2 66.8999 31.2 67.5999C31.2 68.2999 31.7 68.8999 32.4 68.8999C33.1 68.8999 33.6 68.2999 33.6 67.5999C33.6 66.8999 33.1 66.2999 32.4 66.2999ZM31.4 72.4999H39.6V69.8999L37.7 67.8999C37.6812 67.8786 37.6582 67.8616 37.6323 67.8499C37.6064 67.8382 37.5784 67.8322 37.55 67.8322C37.5216 67.8322 37.4936 67.8382 37.4677 67.8499C37.4419 67.8616 37.4188 67.8786 37.4 67.8999L34.4 70.9999L33.3 69.6999C33.3 69.6469 33.2789 69.596 33.2414 69.5585C33.2039 69.521 33.153 69.4999 33.1 69.4999C33.047 69.4999 32.9961 69.521 32.9586 69.5585C32.9211 69.596 32.9 69.6469 32.9 69.6999L31.4 71.3999V72.4999Z" fill="white"/>
<path d="M165.5 62H58.5C57.6716 62 57 62.6716 57 63.5C57 64.3284 57.6716 65 58.5 65H165.5C166.328 65 167 64.3284 167 63.5C167 62.6716 166.328 62 165.5 62Z" fill="#B5C1D1" fill-opacity="0.7"/>
<path d="M144.5 68H58.5C57.6716 68 57 68.6716 57 69.5C57 70.3284 57.6716 71 58.5 71H144.5C145.328 71 146 70.3284 146 69.5C146 68.6716 145.328 68 144.5 68Z" fill="#B5C1D1" fill-opacity="0.7"/>
<path d="M101.5 74H58.5C57.6716 74 57 74.6716 57 75.5C57 76.3284 57.6716 77 58.5 77H101.5C102.328 77 103 76.3284 103 75.5C103 74.6716 102.328 74 101.5 74Z" fill="#B5C1D1" fill-opacity="0.7"/>
<path d="M101.5 80H58.5C57.6716 80 57 80.6716 57 81.5C57 82.3284 57.6716 83 58.5 83H101.5C102.328 83 103 82.3284 103 81.5C103 80.6716 102.328 80 101.5 80Z" fill="#B5C1D1" fill-opacity="0.7"/>
</g>
<path opacity="0.8" d="M78.8516 127.907C78.8516 129.557 78.4027 130.819 77.5049 131.694C76.6117 132.565 75.3242 133 73.6426 133H70.874V123.006H73.9365C75.4906 123.006 76.6982 123.437 77.5596 124.298C78.4209 125.159 78.8516 126.362 78.8516 127.907ZM77.6211 127.948C77.6211 126.645 77.293 125.663 76.6367 125.002C75.985 124.341 75.0143 124.011 73.7246 124.011H72.0361V131.995H73.4512C74.8366 131.995 75.8779 131.656 76.5752 130.977C77.2725 130.293 77.6211 129.284 77.6211 127.948ZM84.0811 133.137C82.9736 133.137 82.0986 132.799 81.4561 132.125C80.818 131.451 80.499 130.514 80.499 129.315C80.499 128.108 80.7952 127.148 81.3877 126.438C81.9847 125.727 82.7845 125.371 83.7871 125.371C84.7259 125.371 85.4688 125.681 86.0156 126.301C86.5625 126.916 86.8359 127.729 86.8359 128.741V129.459H81.6748C81.6976 130.339 81.9186 131.006 82.3379 131.462C82.7617 131.918 83.3564 132.146 84.1221 132.146C84.9287 132.146 85.7262 131.977 86.5146 131.64V132.651C86.1136 132.825 85.7331 132.948 85.373 133.021C85.0176 133.098 84.5869 133.137 84.0811 133.137ZM83.7734 126.321C83.1719 126.321 82.6911 126.517 82.3311 126.909C81.9756 127.301 81.766 127.843 81.7021 128.536H85.6191C85.6191 127.821 85.4596 127.274 85.1406 126.896C84.8216 126.513 84.3659 126.321 83.7734 126.321ZM92.1543 126.39H90.2471V133H89.1123V126.39H87.7725V125.877L89.1123 125.467V125.05C89.1123 123.209 89.9167 122.288 91.5254 122.288C91.9219 122.288 92.3867 122.368 92.9199 122.527L92.626 123.437C92.1885 123.295 91.8148 123.225 91.5049 123.225C91.0765 123.225 90.7598 123.368 90.5547 123.655C90.3496 123.938 90.2471 124.394 90.2471 125.022V125.508H92.1543V126.39ZM98.1289 133L97.9033 131.934H97.8486C97.4749 132.403 97.1012 132.722 96.7275 132.891C96.3584 133.055 95.8958 133.137 95.3398 133.137C94.597 133.137 94.0137 132.945 93.5898 132.562C93.1706 132.18 92.9609 131.635 92.9609 130.929C92.9609 129.416 94.1709 128.623 96.5908 128.55L97.8623 128.509V128.044C97.8623 127.456 97.7347 127.023 97.4795 126.745C97.2288 126.463 96.8255 126.321 96.2695 126.321C95.6452 126.321 94.9388 126.513 94.1504 126.896L93.8018 126.027C94.1709 125.827 94.5742 125.67 95.0117 125.556C95.4538 125.442 95.8958 125.385 96.3379 125.385C97.2311 125.385 97.8919 125.583 98.3203 125.979C98.7533 126.376 98.9697 127.012 98.9697 127.887V133H98.1289ZM95.5654 132.2C96.2718 132.2 96.8255 132.007 97.2266 131.619C97.6322 131.232 97.835 130.689 97.835 129.992V129.315L96.7002 129.363C95.7979 129.395 95.1462 129.536 94.7451 129.787C94.3486 130.033 94.1504 130.418 94.1504 130.942C94.1504 131.353 94.2734 131.665 94.5195 131.879C94.7702 132.093 95.1188 132.2 95.5654 132.2ZM102.381 125.508V130.368C102.381 130.979 102.52 131.435 102.798 131.735C103.076 132.036 103.511 132.187 104.104 132.187C104.887 132.187 105.459 131.972 105.819 131.544C106.184 131.116 106.366 130.416 106.366 129.445V125.508H107.501V133H106.564L106.4 131.995H106.339C106.106 132.364 105.783 132.647 105.368 132.843C104.958 133.039 104.489 133.137 103.96 133.137C103.049 133.137 102.365 132.92 101.909 132.487C101.458 132.054 101.232 131.362 101.232 130.409V125.508H102.381ZM111.049 133H109.914V122.363H111.049V133ZM115.875 132.2C116.076 132.2 116.269 132.187 116.456 132.159C116.643 132.127 116.791 132.095 116.9 132.063V132.932C116.777 132.991 116.595 133.039 116.354 133.075C116.117 133.116 115.902 133.137 115.711 133.137C114.262 133.137 113.537 132.373 113.537 130.847V126.39H112.464V125.843L113.537 125.371L114.016 123.771H114.672V125.508H116.846V126.39H114.672V130.799C114.672 131.25 114.779 131.596 114.993 131.838C115.207 132.079 115.501 132.2 115.875 132.2Z" fill="#3C4B5D"/>
<rect x="0.5" y="0.5" width="186" height="150" rx="3.5" stroke="#C5CCDB"/>
<g clip-path="url(#clip1_610_8148)">
<path d="M201 8H395V95H201V8Z" fill="white" fill-opacity="0.4"/>
<path d="M231 61H218C216.343 61 215 62.3431 215 64V75C215 76.6569 216.343 78 218 78H231C232.657 78 234 76.6569 234 75V64C234 62.3431 232.657 61 231 61Z" fill="#9EA9B8" fill-opacity="0.7"/>
<path opacity="0.5" d="M229 74H220L219 73V66L220 65H229L230 66V73L229 74ZM221 66L220 68L221 69L223 68L221 66ZM220 73H229V70L227 68H226L223 71L222 70L220 71V73Z" fill="white"/>
<path d="M287.5 62H240.5C239.672 62 239 62.6716 239 63.5C239 64.3284 239.672 65 240.5 65H287.5C288.328 65 289 64.3284 289 63.5C289 62.6716 288.328 62 287.5 62Z" fill="#B5C1D1" fill-opacity="0.7"/>
<path d="M277.5 68H240.5C239.672 68 239 68.6716 239 69.5C239 70.3284 239.672 71 240.5 71H277.5C278.328 71 279 70.3284 279 69.5C279 68.6716 278.328 68 277.5 68Z" fill="#B5C1D1" fill-opacity="0.7"/>
<path d="M258.5 74H240.5C239.672 74 239 74.6716 239 75.5C239 76.3284 239.672 77 240.5 77H258.5C259.328 77 260 76.3284 260 75.5C260 74.6716 259.328 74 258.5 74Z" fill="#B5C1D1" fill-opacity="0.7"/>
<path d="M258.5 80H240.5C239.672 80 239 80.6716 239 81.5C239 82.3284 239.672 83 240.5 83H258.5C259.328 83 260 82.3284 260 81.5C260 80.6716 259.328 80 258.5 80Z" fill="#B5C1D1" fill-opacity="0.7"/>
<path d="M319 61H306C304.343 61 303 62.3431 303 64V75C303 76.6569 304.343 78 306 78H319C320.657 78 322 76.6569 322 75V64C322 62.3431 320.657 61 319 61Z" fill="#9EA9B8" fill-opacity="0.7"/>
<path opacity="0.5" d="M317 74H308L307 73V66L308 65H317L318 66V73L317 74ZM309 66L308 68L309 69L311 68L309 66ZM308 73H317V70L315 68H314L311 71L310 70L308 71V73Z" fill="white"/>
<path d="M375.5 62H328.5C327.672 62 327 62.6716 327 63.5C327 64.3284 327.672 65 328.5 65H375.5C376.328 65 377 64.3284 377 63.5C377 62.6716 376.328 62 375.5 62Z" fill="#B5C1D1" fill-opacity="0.7"/>
<path d="M365.5 68H328.5C327.672 68 327 68.6716 327 69.5C327 70.3284 327.672 71 328.5 71H365.5C366.328 71 367 70.3284 367 69.5C367 68.6716 366.328 68 365.5 68Z" fill="#B5C1D1" fill-opacity="0.7"/>
<path d="M346.5 74H328.5C327.672 74 327 74.6716 327 75.5C327 76.3284 327.672 77 328.5 77H346.5C347.328 77 348 76.3284 348 75.5C348 74.6716 347.328 74 346.5 74Z" fill="#B5C1D1" fill-opacity="0.7"/>
<path d="M346.5 80H328.5C327.672 80 327 80.6716 327 81.5C327 82.3284 327.672 83 328.5 83H346.5C347.328 83 348 82.3284 348 81.5C348 80.6716 347.328 80 346.5 80Z" fill="#B5C1D1" fill-opacity="0.7"/>
<path d="M231 21H218C216.343 21 215 22.3431 215 24V35C215 36.6569 216.343 38 218 38H231C232.657 38 234 36.6569 234 35V24C234 22.3431 232.657 21 231 21Z" fill="#9EA9B8" fill-opacity="0.7"/>
<path opacity="0.5" d="M229 34H220L219 33V26L220 25H229L230 26V33L229 34ZM221 26L220 28L221 29L223 28L221 26ZM220 33H229V30L227 28H226L223 31L222 30L220 31V33Z" fill="white"/>
<path d="M287.5 22H240.5C239.672 22 239 22.6716 239 23.5C239 24.3284 239.672 25 240.5 25H287.5C288.328 25 289 24.3284 289 23.5C289 22.6716 288.328 22 287.5 22Z" fill="#B5C1D1" fill-opacity="0.7"/>
<path d="M277.5 28H240.5C239.672 28 239 28.6716 239 29.5C239 30.3284 239.672 31 240.5 31H277.5C278.328 31 279 30.3284 279 29.5C279 28.6716 278.328 28 277.5 28Z" fill="#B5C1D1" fill-opacity="0.7"/>
<path d="M258.5 34H240.5C239.672 34 239 34.6716 239 35.5C239 36.3284 239.672 37 240.5 37H258.5C259.328 37 260 36.3284 260 35.5C260 34.6716 259.328 34 258.5 34Z" fill="#B5C1D1" fill-opacity="0.7"/>
<path d="M258.5 40H240.5C239.672 40 239 40.6716 239 41.5C239 42.3284 239.672 43 240.5 43H258.5C259.328 43 260 42.3284 260 41.5C260 40.6716 259.328 40 258.5 40Z" fill="#B5C1D1" fill-opacity="0.7"/>
<path d="M319 21H306C304.343 21 303 22.3431 303 24V35C303 36.6569 304.343 38 306 38H319C320.657 38 322 36.6569 322 35V24C322 22.3431 320.657 21 319 21Z" fill="#9EA9B8" fill-opacity="0.7"/>
<path opacity="0.5" d="M317 34H308L307 33V26L308 25H317L318 26V33L317 34ZM309 26L308 28L309 29L311 28L309 26ZM308 33H317V30L315 28H314L311 31L310 30L308 31V33Z" fill="white"/>
<path d="M375.5 22H328.5C327.672 22 327 22.6716 327 23.5C327 24.3284 327.672 25 328.5 25H375.5C376.328 25 377 24.3284 377 23.5C377 22.6716 376.328 22 375.5 22Z" fill="#B5C1D1" fill-opacity="0.7"/>
<path d="M365.5 28H328.5C327.672 28 327 28.6716 327 29.5C327 30.3284 327.672 31 328.5 31H365.5C366.328 31 367 30.3284 367 29.5C367 28.6716 366.328 28 365.5 28Z" fill="#B5C1D1" fill-opacity="0.7"/>
<path d="M346.5 34H328.5C327.672 34 327 34.6716 327 35.5C327 36.3284 327.672 37 328.5 37H346.5C347.328 37 348 36.3284 348 35.5C348 34.6716 347.328 34 346.5 34Z" fill="#B5C1D1" fill-opacity="0.7"/>
<path d="M346.5 40H328.5C327.672 40 327 40.6716 327 41.5C327 42.3284 327.672 43 328.5 43H346.5C347.328 43 348 42.3284 348 41.5C348 40.6716 347.328 40 346.5 40Z" fill="#B5C1D1" fill-opacity="0.7"/>
</g>
<path opacity="0.8" d="M256.95 133H255.788V124.038H252.623V123.006H260.115V124.038H256.95V133ZM267.573 133L266.199 128.604C266.113 128.336 265.951 127.725 265.714 126.772H265.659C265.477 127.57 265.317 128.185 265.181 128.618L263.766 133H262.453L260.409 125.508H261.599C262.082 127.39 262.449 128.823 262.699 129.808C262.954 130.792 263.1 131.455 263.137 131.797H263.191C263.242 131.537 263.321 131.202 263.431 130.792C263.545 130.377 263.643 130.049 263.725 129.808L265.099 125.508H266.329L267.669 129.808C267.924 130.591 268.097 131.25 268.188 131.783H268.243C268.261 131.619 268.309 131.366 268.387 131.024C268.469 130.683 268.945 128.844 269.815 125.508H270.991L268.92 133H267.573ZM278.818 129.247C278.818 130.468 278.511 131.423 277.896 132.111C277.28 132.795 276.43 133.137 275.346 133.137C274.676 133.137 274.081 132.979 273.562 132.665C273.042 132.351 272.641 131.899 272.358 131.312C272.076 130.724 271.935 130.035 271.935 129.247C271.935 128.026 272.24 127.076 272.851 126.396C273.461 125.713 274.309 125.371 275.394 125.371C276.442 125.371 277.273 125.72 277.889 126.417C278.508 127.114 278.818 128.058 278.818 129.247ZM273.11 129.247C273.11 130.204 273.302 130.933 273.685 131.435C274.067 131.936 274.63 132.187 275.373 132.187C276.116 132.187 276.679 131.938 277.062 131.441C277.449 130.94 277.643 130.209 277.643 129.247C277.643 128.295 277.449 127.572 277.062 127.08C276.679 126.583 276.111 126.335 275.359 126.335C274.617 126.335 274.056 126.579 273.678 127.066C273.299 127.554 273.11 128.281 273.11 129.247ZM280.186 129.767V128.728H283.542V129.767H280.186ZM288.32 133.137C287.236 133.137 286.395 132.804 285.798 132.139C285.205 131.469 284.909 130.523 284.909 129.302C284.909 128.049 285.21 127.08 285.812 126.396C286.418 125.713 287.279 125.371 288.396 125.371C288.756 125.371 289.116 125.41 289.476 125.487C289.836 125.565 290.118 125.656 290.323 125.761L289.975 126.725C289.724 126.624 289.451 126.542 289.154 126.479C288.858 126.41 288.596 126.376 288.368 126.376C286.846 126.376 286.085 127.347 286.085 129.288C286.085 130.209 286.27 130.915 286.639 131.407C287.012 131.899 287.564 132.146 288.293 132.146C288.917 132.146 289.558 132.011 290.214 131.742V132.747C289.713 133.007 289.081 133.137 288.32 133.137ZM298.465 129.247C298.465 130.468 298.157 131.423 297.542 132.111C296.927 132.795 296.077 133.137 294.992 133.137C294.322 133.137 293.728 132.979 293.208 132.665C292.688 132.351 292.287 131.899 292.005 131.312C291.722 130.724 291.581 130.035 291.581 129.247C291.581 128.026 291.886 127.076 292.497 126.396C293.108 125.713 293.955 125.371 295.04 125.371C296.088 125.371 296.92 125.72 297.535 126.417C298.155 127.114 298.465 128.058 298.465 129.247ZM292.757 129.247C292.757 130.204 292.948 130.933 293.331 131.435C293.714 131.936 294.277 132.187 295.02 132.187C295.762 132.187 296.325 131.938 296.708 131.441C297.095 130.94 297.289 130.209 297.289 129.247C297.289 128.295 297.095 127.572 296.708 127.08C296.325 126.583 295.758 126.335 295.006 126.335C294.263 126.335 293.702 126.579 293.324 127.066C292.946 127.554 292.757 128.281 292.757 129.247ZM301.596 133H300.461V122.363H301.596V133ZM305.068 125.508V130.368C305.068 130.979 305.207 131.435 305.485 131.735C305.763 132.036 306.199 132.187 306.791 132.187C307.575 132.187 308.147 131.972 308.507 131.544C308.871 131.116 309.054 130.416 309.054 129.445V125.508H310.188V133H309.252L309.088 131.995H309.026C308.794 132.364 308.47 132.647 308.056 132.843C307.646 133.039 307.176 133.137 306.647 133.137C305.736 133.137 305.052 132.92 304.597 132.487C304.146 132.054 303.92 131.362 303.92 130.409V125.508H305.068ZM322.151 133V128.126C322.151 127.529 322.024 127.082 321.769 126.786C321.513 126.485 321.117 126.335 320.579 126.335C319.873 126.335 319.351 126.538 319.014 126.943C318.676 127.349 318.508 127.973 318.508 128.816V133H317.373V128.126C317.373 127.529 317.245 127.082 316.99 126.786C316.735 126.485 316.336 126.335 315.794 126.335C315.083 126.335 314.561 126.549 314.229 126.978C313.9 127.401 313.736 128.099 313.736 129.069V133H312.602V125.508H313.524L313.709 126.533H313.764C313.978 126.169 314.279 125.884 314.666 125.679C315.058 125.474 315.495 125.371 315.979 125.371C317.15 125.371 317.915 125.795 318.275 126.643H318.33C318.553 126.251 318.877 125.941 319.301 125.713C319.725 125.485 320.208 125.371 320.75 125.371C321.598 125.371 322.231 125.59 322.65 126.027C323.074 126.46 323.286 127.155 323.286 128.112V133H322.151ZM330.758 133V128.153C330.758 127.543 330.619 127.087 330.341 126.786C330.063 126.485 329.628 126.335 329.035 126.335C328.251 126.335 327.677 126.547 327.312 126.971C326.948 127.395 326.766 128.094 326.766 129.069V133H325.631V125.508H326.554L326.738 126.533H326.793C327.025 126.164 327.351 125.879 327.771 125.679C328.19 125.474 328.657 125.371 329.172 125.371C330.074 125.371 330.753 125.59 331.209 126.027C331.665 126.46 331.893 127.155 331.893 128.112V133H330.758ZM339.063 130.956C339.063 131.653 338.804 132.191 338.284 132.569C337.765 132.948 337.035 133.137 336.097 133.137C335.103 133.137 334.328 132.979 333.772 132.665V131.612C334.132 131.795 334.518 131.938 334.928 132.043C335.342 132.148 335.741 132.2 336.124 132.2C336.716 132.2 337.172 132.107 337.491 131.92C337.81 131.729 337.97 131.439 337.97 131.052C337.97 130.76 337.842 130.512 337.587 130.307C337.336 130.097 336.844 129.851 336.11 129.568C335.413 129.309 334.916 129.083 334.62 128.892C334.328 128.696 334.11 128.475 333.964 128.229C333.823 127.982 333.752 127.688 333.752 127.347C333.752 126.736 334 126.255 334.497 125.904C334.994 125.549 335.675 125.371 336.541 125.371C337.348 125.371 338.136 125.535 338.906 125.863L338.503 126.786C337.751 126.476 337.07 126.321 336.459 126.321C335.921 126.321 335.516 126.406 335.242 126.574C334.969 126.743 334.832 126.975 334.832 127.271C334.832 127.472 334.882 127.643 334.982 127.784C335.087 127.925 335.254 128.06 335.481 128.188C335.709 128.315 336.147 128.5 336.794 128.741C337.683 129.065 338.282 129.391 338.592 129.719C338.906 130.047 339.063 130.459 339.063 130.956Z" fill="#3C4B5D"/>
<rect x="203.5" y="0.5" width="186" height="150" rx="3.5" stroke="#C5CCDB"/>
<rect width="172" height="87" transform="translate(414 8)" fill="white" fill-opacity="0.4"/>
<rect width="172" height="19" transform="translate(414 8)" fill="white" fill-opacity="0.6"/>
<path d="M465.77 15H427.23C426.551 15 426 16.3431 426 18C426 19.6569 426.551 21 427.23 21H465.77C466.449 21 467 19.6569 467 18C467 16.3431 466.449 15 465.77 15Z" fill="#B5C1D1" fill-opacity="0.7"/>
<path d="M518.77 15H480.23C479.551 15 479 16.3431 479 18C479 19.6569 479.551 21 480.23 21H518.77C519.449 21 520 19.6569 520 18C520 16.3431 519.449 15 518.77 15Z" fill="#B5C1D1" fill-opacity="0.7"/>
<path d="M571.77 15H533.23C532.551 15 532 16.3431 532 18C532 19.6569 532.551 21 533.23 21H571.77C572.449 21 573 19.6569 573 18C573 16.3431 572.449 15 571.77 15Z" fill="#B5C1D1" fill-opacity="0.7"/>
<path d="M465.77 37H427.23C426.551 37 426 37.6716 426 38.5C426 39.3284 426.551 40 427.23 40H465.77C466.449 40 467 39.3284 467 38.5C467 37.6716 466.449 37 465.77 37Z" fill="#B5C1D1" fill-opacity="0.7"/>
<path d="M518.77 37H480.23C479.551 37 479 37.6716 479 38.5C479 39.3284 479.551 40 480.23 40H518.77C519.449 40 520 39.3284 520 38.5C520 37.6716 519.449 37 518.77 37Z" fill="#B5C1D1" fill-opacity="0.7"/>
<path d="M571.77 37H533.23C532.551 37 532 37.6716 532 38.5C532 39.3284 532.551 40 533.23 40H571.77C572.449 40 573 39.3284 573 38.5C573 37.6716 572.449 37 571.77 37Z" fill="#B5C1D1" fill-opacity="0.7"/>
<path d="M465.77 52H427.23C426.551 52 426 52.6716 426 53.5C426 54.3284 426.551 55 427.23 55H465.77C466.449 55 467 54.3284 467 53.5C467 52.6716 466.449 52 465.77 52Z" fill="#B5C1D1" fill-opacity="0.7"/>
<path d="M518.77 52H480.23C479.551 52 479 52.6716 479 53.5C479 54.3284 479.551 55 480.23 55H518.77C519.449 55 520 54.3284 520 53.5C520 52.6716 519.449 52 518.77 52Z" fill="#B5C1D1" fill-opacity="0.7"/>
<path d="M571.77 52H533.23C532.551 52 532 52.6716 532 53.5C532 54.3284 532.551 55 533.23 55H571.77C572.449 55 573 54.3284 573 53.5C573 52.6716 572.449 52 571.77 52Z" fill="#B5C1D1" fill-opacity="0.7"/>
<path d="M465.77 67H427.23C426.551 67 426 67.6716 426 68.5C426 69.3284 426.551 70 427.23 70H465.77C466.449 70 467 69.3284 467 68.5C467 67.6716 466.449 67 465.77 67Z" fill="#B5C1D1" fill-opacity="0.7"/>
<path d="M518.77 67H480.23C479.551 67 479 67.6716 479 68.5C479 69.3284 479.551 70 480.23 70H518.77C519.449 70 520 69.3284 520 68.5C520 67.6716 519.449 67 518.77 67Z" fill="#B5C1D1" fill-opacity="0.7"/>
<path d="M571.77 67H533.23C532.551 67 532 67.6716 532 68.5C532 69.3284 532.551 70 533.23 70H571.77C572.449 70 573 69.3284 573 68.5C573 67.6716 572.449 67 571.77 67Z" fill="#B5C1D1" fill-opacity="0.7"/>
<path d="M465.77 82H427.23C426.551 82 426 82.6716 426 83.5C426 84.3284 426.551 85 427.23 85H465.77C466.449 85 467 84.3284 467 83.5C467 82.6716 466.449 82 465.77 82Z" fill="#B5C1D1" fill-opacity="0.7"/>
<path d="M518.77 82H480.23C479.551 82 479 82.6716 479 83.5C479 84.3284 479.551 85 480.23 85H518.77C519.449 85 520 84.3284 520 83.5C520 82.6716 519.449 82 518.77 82Z" fill="#B5C1D1" fill-opacity="0.7"/>
<path d="M571.77 82H533.23C532.551 82 532 82.6716 532 83.5C532 84.3284 532.551 85 533.23 85H571.77C572.449 85 573 84.3284 573 83.5C573 82.6716 572.449 82 571.77 82Z" fill="#B5C1D1" fill-opacity="0.7"/>
<path opacity="0.8" d="M486.45 133H485.288V124.038H482.123V123.006H489.615V124.038H486.45V133ZM495.562 133L495.337 131.934H495.282C494.909 132.403 494.535 132.722 494.161 132.891C493.792 133.055 493.329 133.137 492.773 133.137C492.031 133.137 491.447 132.945 491.023 132.562C490.604 132.18 490.395 131.635 490.395 130.929C490.395 129.416 491.604 128.623 494.024 128.55L495.296 128.509V128.044C495.296 127.456 495.168 127.023 494.913 126.745C494.662 126.463 494.259 126.321 493.703 126.321C493.079 126.321 492.372 126.513 491.584 126.896L491.235 126.027C491.604 125.827 492.008 125.67 492.445 125.556C492.887 125.442 493.329 125.385 493.771 125.385C494.665 125.385 495.326 125.583 495.754 125.979C496.187 126.376 496.403 127.012 496.403 127.887V133H495.562ZM492.999 132.2C493.705 132.2 494.259 132.007 494.66 131.619C495.066 131.232 495.269 130.689 495.269 129.992V129.315L494.134 129.363C493.231 129.395 492.58 129.536 492.179 129.787C491.782 130.033 491.584 130.418 491.584 130.942C491.584 131.353 491.707 131.665 491.953 131.879C492.204 132.093 492.552 132.2 492.999 132.2ZM502.234 125.385C503.219 125.385 503.982 125.722 504.524 126.396C505.071 127.066 505.345 128.017 505.345 129.247C505.345 130.478 505.069 131.435 504.518 132.118C503.971 132.797 503.21 133.137 502.234 133.137C501.747 133.137 501.3 133.048 500.895 132.87C500.493 132.688 500.156 132.41 499.883 132.036H499.801L499.562 133H498.748V122.363H499.883V124.947C499.883 125.526 499.865 126.046 499.828 126.506H499.883C500.411 125.758 501.195 125.385 502.234 125.385ZM502.07 126.335C501.296 126.335 500.737 126.558 500.396 127.005C500.054 127.447 499.883 128.194 499.883 129.247C499.883 130.3 500.058 131.054 500.409 131.51C500.76 131.961 501.323 132.187 502.098 132.187C502.795 132.187 503.314 131.934 503.656 131.428C503.998 130.917 504.169 130.186 504.169 129.233C504.169 128.258 503.998 127.531 503.656 127.053C503.314 126.574 502.786 126.335 502.07 126.335ZM508.469 133H507.334V122.363H508.469V133ZM514.04 133.137C512.933 133.137 512.058 132.799 511.415 132.125C510.777 131.451 510.458 130.514 510.458 129.315C510.458 128.108 510.754 127.148 511.347 126.438C511.944 125.727 512.743 125.371 513.746 125.371C514.685 125.371 515.428 125.681 515.975 126.301C516.521 126.916 516.795 127.729 516.795 128.741V129.459H511.634C511.657 130.339 511.878 131.006 512.297 131.462C512.721 131.918 513.315 132.146 514.081 132.146C514.888 132.146 515.685 131.977 516.474 131.64V132.651C516.073 132.825 515.692 132.948 515.332 133.021C514.977 133.098 514.546 133.137 514.04 133.137ZM513.732 126.321C513.131 126.321 512.65 126.517 512.29 126.909C511.935 127.301 511.725 127.843 511.661 128.536H515.578C515.578 127.821 515.419 127.274 515.1 126.896C514.781 126.513 514.325 126.321 513.732 126.321Z" fill="#3C4B5D"/>
<rect x="406.5" y="0.5" width="187" height="150" rx="3.5" stroke="#C5CCDB"/>
<defs>
<clipPath id="clip0_610_8148">
<rect width="171" height="87" fill="white" transform="translate(8 8)"/>
</clipPath>
<clipPath id="clip1_610_8148">
<rect width="171" height="87" fill="white" transform="translate(211 8)"/>
</clipPath>
</defs>
</svg>