<svg xmlns="http://www.w3.org/2000/svg" xmlns:xlink="http://www.w3.org/1999/xlink" fill="none" viewBox="0 0 594 151" xmlns:v="https://vecta.io/nano"><style><![CDATA[.B{fill-opacity:.7}.C{fill:#fff}.D{fill:#b5c1d1}.E{fill:#9ea9b8}.F{opacity:.5}.G{fill-opacity:.4}.H{fill:#3c4b5d}.I{stroke:#c5ccdb}]]></style><g clip-path="url(#A)"><path d="M8 8H202V95H8V8Z" class="C G"/><path d="M47 21H25a3 3 0 0 0-3 3v11a3 3 0 0 0 3 3h22a3 3 0 0 0 3-3V24a3 3 0 0 0-3-3z" class="B E"/><path d="M40 34h-9c-.5 0-1-.5-1-1.1V26c0-.6.5-1.1 1-1.1h9c.5 0 1 .5 1 1.1v7c0 .6-.5 1.1-1 1.1V34zm-7.6-7.7c-.7 0-1.2.6-1.2 1.3s.5 1.3 1.2 1.3 1.2-.6 1.2-1.3-.5-1.3-1.2-1.3zm-1 6.2h8.2v-2.6l-1.9-2a.2.2 0 0 0-.15-.068.2.2 0 0 0-.15.068l-3 3.1-1.1-1.3a.2.2 0 0 0-.2-.2.2.2 0 0 0-.2.2l-1.5 1.7v1.1z" class="C F"/><g class="D B"><path d="M165.5 22h-107a1.5 1.5 0 1 0 0 3h107a1.5 1.5 0 1 0 0-3zm-21 6h-86a1.5 1.5 0 1 0 0 3h86a1.5 1.5 0 1 0 0-3z"/><use xlink:href="#C"/><path d="M101.5 40h-43a1.5 1.5 0 1 0 0 3h43a1.5 1.5 0 1 0 0-3z"/></g><path d="M47 61H25a3 3 0 0 0-3 3v11a3 3 0 0 0 3 3h22a3 3 0 0 0 3-3V64a3 3 0 0 0-3-3z" class="B E"/><path d="M40 74h-9c-.5 0-1-.5-1-1.1V66c0-.6.5-1.1 1-1.1h9c.5 0 1 .5 1 1.1v7c0 .6-.5 1.1-1 1.1V74zm-7.6-7.7c-.7 0-1.2.6-1.2 1.3s.5 1.3 1.2 1.3 1.2-.6 1.2-1.3-.5-1.3-1.2-1.3zm-1 6.2h8.2v-2.6l-1.9-2a.2.2 0 0 0-.15-.068.2.2 0 0 0-.15.068l-3 3.1-1.1-1.3a.2.2 0 0 0-.2-.2.2.2 0 0 0-.2.2l-1.5 1.7v1.1z" class="C F"/><g class="D B"><path d="M165.5 62h-107a1.5 1.5 0 1 0 0 3h107a1.5 1.5 0 1 0 0-3zm-21 6h-86a1.5 1.5 0 1 0 0 3h86a1.5 1.5 0 1 0 0-3zm-43 6h-43a1.5 1.5 0 1 0 0 3h43a1.5 1.5 0 1 0 0-3zm0 6h-43a1.5 1.5 0 1 0 0 3h43a1.5 1.5 0 1 0 0-3z"/></g></g><path d="M78.852 127.91c0 1.65-.449 2.912-1.347 3.787s-2.181 1.306-3.862 1.306h-2.769v-9.994h3.063c1.554 0 2.762.431 3.623 1.292s1.292 2.064 1.292 3.609zm-1.231.041c0-1.303-.328-2.285-.984-2.946s-1.622-.991-2.912-.991h-1.689v7.984h1.415c1.385 0 2.427-.339 3.124-1.018s1.046-1.693 1.046-3.029zm6.46 5.189c-1.108 0-1.983-.338-2.625-1.012s-.957-1.611-.957-2.81c0-1.207.296-2.167.889-2.877s1.397-1.067 2.399-1.067c.939 0 1.682.31 2.228.93.547.615.82 1.428.82 2.44v.718h-5.161c.023.88.244 1.547.663 2.003s1.019.684 1.784.684c.807 0 1.604-.169 2.392-.506v1.011c-.401.174-.781.297-1.142.37s-.786.116-1.292.116zm-.308-6.816c-.602 0-1.082.196-1.442.588s-.565.934-.629 1.627h3.917c0-.715-.159-1.262-.478-1.64s-.775-.575-1.367-.575zm8.381.069h-1.907v6.61h-1.135v-6.61h-1.34v-.513l1.34-.41v-.417c0-1.841.804-2.762 2.413-2.762.397 0 .861.08 1.394.239l-.294.91c-.437-.142-.811-.212-1.121-.212-.428 0-.745.143-.95.43s-.308.739-.308 1.367v.486h1.907v.882zm5.975 6.61l-.226-1.066h-.055c-.374.469-.747.788-1.121.957s-.832.246-1.388.246c-.743 0-1.326-.192-1.75-.575s-.629-.927-.629-1.633c0-1.513 1.21-2.306 3.63-2.379l1.272-.041v-.465c0-.588-.128-1.021-.383-1.299s-.654-.424-1.21-.424c-.624 0-1.331.192-2.119.575l-.349-.869a5.37 5.37 0 0 1 1.21-.471c.442-.114.884-.171 1.326-.171.893 0 1.554.198 1.982.594s.649 1.033.649 1.908v5.113h-.841zm-2.564-.8c.706 0 1.26-.193 1.661-.581s.608-.93.608-1.627v-.677l-1.135.048c-.902.032-1.554.173-1.955.424s-.595.631-.595 1.155c0 .411.123.723.369.937s.599.321 1.046.321zm6.816-6.692v4.86c0 .611.139 1.067.417 1.367s.713.452 1.306.452c.783 0 1.355-.215 1.715-.643s.547-1.128.547-2.099v-3.937h1.135v7.492h-.937l-.164-1.005h-.061c-.233.369-.556.652-.971.848-.41.196-.879.294-1.408.294-.911 0-1.595-.217-2.051-.65-.451-.433-.677-1.125-.677-2.078v-4.901h1.149zm8.668 7.492h-1.135v-10.637h1.135v10.637zm4.826-.8c.201 0 .394-.013.581-.041l.444-.096v.869c-.123.059-.305.107-.546.143s-.452.062-.643.062c-1.449 0-2.174-.764-2.174-2.29v-4.457h-1.073v-.547l1.073-.472.479-1.6h.656v1.737h2.174v.882h-2.174v4.409c0 .451.107.797.321 1.039s.508.362.882.362z" opacity=".8" class="H"/><rect x=".5" y=".5" width="186" height="150" rx="3.5" class="I"/><g clip-path="url(#B)"><path d="M201 8H395V95H201V8Z" class="C G"/><path d="M231 61h-13a3 3 0 0 0-3 3v11a3 3 0 0 0 3 3h13a3 3 0 0 0 3-3V64a3 3 0 0 0-3-3z" class="B E"/><use xlink:href="#D" class="C F"/><g class="D B"><use xlink:href="#E"/><use xlink:href="#F"/><use xlink:href="#G"/><path d="M258.5 80h-18a1.5 1.5 0 1 0 0 3h18a1.5 1.5 0 1 0 0-3z"/></g><path d="M319 61h-13a3 3 0 0 0-3 3v11a3 3 0 0 0 3 3h13a3 3 0 0 0 3-3V64a3 3 0 0 0-3-3z" class="B E"/><path d="m317 74h-9l-1-1v-7l1-1h9l1 1v7l-1 1zm-8-8-1 2 1 1 2-1-2-2zm-1 7h9v-3l-2-2h-1l-3 3-1-1-2 1v2z" class="C F"/><g class="D B"><path d="M375.5 62h-47a1.5 1.5 0 1 0 0 3h47a1.5 1.5 0 1 0 0-3zm-10 6h-37a1.5 1.5 0 1 0 0 3h37a1.5 1.5 0 1 0 0-3zm-19 6h-18a1.5 1.5 0 1 0 0 3h18a1.5 1.5 0 1 0 0-3zm0 6h-18a1.5 1.5 0 1 0 0 3h18a1.5 1.5 0 1 0 0-3z"/></g><path d="M231 21h-13a3 3 0 0 0-3 3v11a3 3 0 0 0 3 3h13a3 3 0 0 0 3-3V24a3 3 0 0 0-3-3z" class="B E"/><path d="m229 34h-9l-1-1v-7l1-1h9l1 1v7l-1 1zm-8-8-1 2 1 1 2-1-2-2zm-1 7h9v-3l-2-2h-1l-3 3-1-1-2 1v2z" class="C F"/><g class="D B"><path d="M287.5 22h-47a1.5 1.5 0 1 0 0 3h47a1.5 1.5 0 1 0 0-3zm-10 6h-37a1.5 1.5 0 1 0 0 3h37a1.5 1.5 0 1 0 0-3zm-19 6h-18a1.5 1.5 0 1 0 0 3h18a1.5 1.5 0 1 0 0-3zm0 6h-18a1.5 1.5 0 1 0 0 3h18a1.5 1.5 0 1 0 0-3z"/></g><path d="M319 21h-13a3 3 0 0 0-3 3v11a3 3 0 0 0 3 3h13a3 3 0 0 0 3-3V24a3 3 0 0 0-3-3z" class="B E"/><path d="m317 34h-9l-1-1v-7l1-1h9l1 1v7l-1 1zm-8-8-1 2 1 1 2-1-2-2zm-1 7h9v-3l-2-2h-1l-3 3-1-1-2 1v2z" class="C F"/><g class="D B"><path d="M375.5 22h-47a1.5 1.5 0 1 0 0 3h47a1.5 1.5 0 1 0 0-3zm-10 6h-37a1.5 1.5 0 1 0 0 3h37a1.5 1.5 0 1 0 0-3zm-19 6h-18a1.5 1.5 0 1 0 0 3h18a1.5 1.5 0 1 0 0-3zm0 6h-18a1.5 1.5 0 1 0 0 3h18a1.5 1.5 0 1 0 0-3z"/></g></g><path d="M256.95 133h-1.162v-8.962h-3.165v-1.032h7.492v1.032h-3.165V133zm10.623 0l-1.374-4.396c-.086-.268-.248-.879-.485-1.832h-.055l-.478 1.846-1.415 4.382h-1.313l-2.044-7.492h1.19l1.1 4.3.438 1.989h.054l.24-1.005.294-.984 1.374-4.3h1.23l1.34 4.3c.255.783.428 1.442.519 1.975h.055c.018-.164.066-.417.144-.759l1.428-5.516h1.176L268.92 133h-1.347zm11.245-3.753c0 1.221-.307 2.176-.922 2.864s-1.466 1.026-2.55 1.026c-.67 0-1.265-.158-1.784-.472s-.921-.766-1.204-1.353-.423-1.277-.423-2.065c0-1.221.305-2.171.916-2.851s1.458-1.025 2.543-1.025c1.048 0 1.879.349 2.495 1.046s.929 1.641.929 2.83zm-5.708 0c0 .957.192 1.686.575 2.188s.945.752 1.688.752 1.306-.249 1.689-.746.581-1.232.581-2.194c0-.952-.194-1.675-.581-2.167s-.951-.745-1.703-.745c-.742 0-1.303.244-1.681.731s-.568 1.215-.568 2.181zm7.076.52v-1.039h3.356v1.039h-3.356zm8.134 3.37c-1.084 0-1.925-.333-2.522-.998s-.889-1.616-.889-2.837c0-1.253.301-2.222.903-2.906s1.467-1.025 2.584-1.025a5.15 5.15 0 0 1 1.08.116c.36.078.642.169.847.274l-.348.964a4.94 4.94 0 0 0-.821-.246c-.296-.069-.558-.103-.786-.103-1.522 0-2.283.971-2.283 2.912 0 .921.185 1.627.554 2.119s.925.739 1.654.739c.624 0 1.265-.135 1.921-.404v1.005c-.501.26-1.133.39-1.894.39zm10.145-3.89c0 1.221-.308 2.176-.923 2.864s-1.465 1.026-2.55 1.026c-.67 0-1.264-.158-1.784-.472s-.921-.766-1.203-1.353-.424-1.277-.424-2.065c0-1.221.305-2.171.916-2.851s1.458-1.025 2.543-1.025c1.048 0 1.88.349 2.495 1.046s.93 1.641.93 2.83zm-5.708 0c0 .957.191 1.686.574 2.188s.946.752 1.689.752 1.305-.249 1.688-.746.581-1.232.581-2.194c0-.952-.194-1.675-.581-2.167s-.95-.745-1.702-.745c-.743 0-1.304.244-1.682.731s-.567 1.215-.567 2.181zm8.839 3.753h-1.135v-10.637h1.135V133zm3.472-7.492v4.86c0 .611.139 1.067.417 1.367s.714.452 1.306.452c.784 0 1.356-.215 1.716-.643s.547-1.128.547-2.099v-3.937h1.134V133h-.936l-.164-1.005h-.062a2.26 2.26 0 0 1-.97.848c-.41.196-.88.294-1.409.294-.911 0-1.595-.217-2.05-.65s-.677-1.125-.677-2.078v-4.901h1.148zM322.151 133v-4.874c0-.597-.127-1.044-.382-1.34s-.652-.451-1.19-.451c-.706 0-1.228.203-1.565.608s-.506 1.03-.506 1.873V133h-1.135v-4.874c0-.597-.128-1.044-.383-1.34s-.654-.451-1.196-.451c-.711 0-1.233.214-1.565.643-.329.423-.493 1.121-.493 2.091V133h-1.134v-7.492h.922l.185 1.025h.055c.214-.364.515-.649.902-.854s.829-.308 1.313-.308c1.171 0 1.936.424 2.296 1.272h.055c.223-.392.547-.702.971-.93s.907-.342 1.449-.342c.848 0 1.481.219 1.9.656s.636 1.128.636 2.085V133h-1.135zm8.607 0v-4.847c0-.61-.139-1.066-.417-1.367s-.713-.451-1.306-.451c-.784 0-1.358.212-1.723.636s-.546 1.123-.546 2.098V133h-1.135v-7.492h.923l.184 1.025h.055c.232-.369.558-.654.978-.854s.886-.308 1.401-.308c.902 0 1.581.219 2.037.656s.684 1.128.684 2.085V133h-1.135zm8.305-2.044c0 .697-.259 1.235-.779 1.613s-1.249.568-2.187.568c-.994 0-1.769-.158-2.325-.472v-1.053a5.62 5.62 0 0 0 1.156.431c.414.105.813.157 1.196.157.592 0 1.048-.093 1.367-.28s.479-.481.479-.868c0-.292-.128-.54-.383-.745s-.743-.456-1.477-.739c-.697-.259-1.194-.485-1.49-.676-.292-.196-.51-.417-.656-.663a1.75 1.75 0 0 1-.212-.882 1.67 1.67 0 0 1 .745-1.443c.497-.355 1.178-.533 2.044-.533a5.98 5.98 0 0 1 2.365.492l-.403.923c-.752-.31-1.433-.465-2.044-.465-.538 0-.943.085-1.217.253s-.41.401-.41.697c0 .201.05.372.15.513.105.141.272.276.499.404s.666.312 1.313.553c.889.324 1.488.65 1.798.978s.471.74.471 1.237z" opacity=".8" class="H"/><rect x="203.5" y=".5" width="186" height="150" rx="3.5" class="I"/><g class="C"><path d="M414 8h172v87H414z" class="G"/><path fill-opacity=".6" d="M414 8h172v19H414z"/></g><g class="D B"><use xlink:href="#H"/><use xlink:href="#H" x="53"/><use xlink:href="#H" x="106"/><use xlink:href="#I"/><use xlink:href="#I" x="53"/><use xlink:href="#I" x="106"/><use xlink:href="#I" y="15"/><use xlink:href="#I" x="53" y="15"/><use xlink:href="#I" x="106" y="15"/><use xlink:href="#I" y="30"/><use xlink:href="#I" x="53" y="30"/><use xlink:href="#I" x="106" y="30"/><use xlink:href="#I" y="45"/><use xlink:href="#I" x="53" y="45"/><use xlink:href="#I" x="106" y="45"/></g><path d="M486.45 133h-1.162v-8.962h-3.165v-1.032h7.492v1.032h-3.165V133zm9.112 0l-.225-1.066h-.055c-.373.469-.747.788-1.121.957s-.832.246-1.388.246c-.742 0-1.326-.192-1.75-.575s-.628-.927-.628-1.633c0-1.513 1.209-2.306 3.629-2.379l1.272-.041v-.465c0-.588-.128-1.021-.383-1.299s-.654-.424-1.21-.424c-.624 0-1.331.192-2.119.575l-.349-.869a5.38 5.38 0 0 1 1.21-.471 5.29 5.29 0 0 1 1.326-.171c.894 0 1.555.198 1.983.594s.649 1.033.649 1.908V133h-.841zm-2.563-.8c.706 0 1.26-.193 1.661-.581s.609-.93.609-1.627v-.677l-1.135.048c-.903.032-1.554.173-1.955.424s-.595.631-.595 1.155c0 .411.123.723.369.937s.599.321 1.046.321zm9.235-6.815c.985 0 1.748.337 2.29 1.011s.821 1.621.821 2.851-.276 2.188-.827 2.871-1.308 1.019-2.284 1.019c-.487 0-.934-.089-1.339-.267s-.739-.46-1.012-.834h-.082l-.239.964h-.814v-10.637h1.135v2.584l-.055 1.559h.055c.528-.748 1.312-1.121 2.351-1.121zm-.164.95c-.774 0-1.333.223-1.674.67-.342.442-.513 1.189-.513 2.242s.175 1.807.526 2.263c.351.451.914.677 1.689.677.697 0 1.216-.253 1.558-.759s.513-1.242.513-2.195c0-.975-.171-1.702-.513-2.18s-.87-.718-1.586-.718zm6.399 6.665h-1.135v-10.637h1.135V133zm5.571.137c-1.107 0-1.982-.338-2.625-1.012-.638-.674-.957-1.611-.957-2.81 0-1.207.296-2.167.889-2.877s1.396-1.067 2.399-1.067c.939 0 1.682.31 2.229.93.546.615.82 1.428.82 2.44v.718h-5.161c.023.88.244 1.547.663 2.003.424.456 1.018.684 1.784.684.807 0 1.604-.169 2.393-.506v1.011a5.76 5.76 0 0 1-1.142.37c-.355.077-.786.116-1.292.116zm-.308-6.816c-.601 0-1.082.196-1.442.588s-.565.934-.629 1.627h3.917c0-.715-.159-1.262-.478-1.64s-.775-.575-1.368-.575z" opacity=".8" class="H"/><rect x="406.5" y=".5" width="187" height="150" rx="3.5" class="I"/><defs><clipPath id="A"><path transform="translate(8 8)" d="M0 0h171v87H0z" class="C"/></clipPath><clipPath id="B"><path transform="translate(211 8)" d="M0 0h171v87H0z" class="C"/></clipPath><path id="C" d="M101.5 34h-43a1.5 1.5 0 1 0 0 3h43a1.5 1.5 0 1 0 0-3z"/><path id="D" d="m229 74h-9l-1-1v-7l1-1h9l1 1v7l-1 1zm-8-8-1 2 1 1 2-1-2-2zm-1 7h9v-3l-2-2h-1l-3 3-1-1-2 1v2z"/><path id="E" d="M287.5 62h-47a1.5 1.5 0 1 0 0 3h47a1.5 1.5 0 1 0 0-3z"/><path id="F" d="M277.5 68h-37a1.5 1.5 0 1 0 0 3h37a1.5 1.5 0 1 0 0-3z"/><path id="G" d="M258.5 74h-18a1.5 1.5 0 1 0 0 3h18a1.5 1.5 0 1 0 0-3z"/><path id="H" d="M465.77 15h-38.54c-.679 0-1.23 1.343-1.23 3s.551 3 1.23 3h38.54c.679 0 1.23-1.343 1.23-3s-.551-3-1.23-3z"/><path id="I" d="M465.77 37h-38.54c-.679 0-1.23.672-1.23 1.5s.551 1.5 1.23 1.5h38.54c.679 0 1.23-.672 1.23-1.5s-.551-1.5-1.23-1.5z"/></defs></svg>