<svg version="1.1" width="156" height="118" viewBox="0 0 156 118" fill="none" xmlns="http://www.w3.org/2000/svg">
<g filter="url(#filter0_d_969_26848)">
<rect x="54" y="30" width="48" height="48" rx="12" fill="white"/>
<path d="M77.6445 63.916C83.1674 63.916 87.6445 59.4389 87.6445 53.916C87.6445 48.3932 83.1674 43.916 77.6445 43.916C72.1217 43.916 67.6445 48.3932 67.6445 53.916C67.6445 59.4389 72.1217 63.916 77.6445 63.916Z" stroke="#3C4B5D" stroke-width="2" stroke-linecap="round" stroke-linejoin="round"/>
<path d="M74.7344 50.9156C74.9695 50.2473 75.4335 49.6837 76.0443 49.3247C76.6551 48.9658 77.3733 48.8345 78.0716 48.9543C78.7698 49.0741 79.4032 49.4371 79.8595 49.9791C80.3157 50.5211 80.5654 51.2071 80.5644 51.9156C80.5644 53.9156 77.5644 54.9156 77.5644 54.9156" stroke="#3C4B5D" stroke-width="2" stroke-linecap="round" stroke-linejoin="round"/>
<path d="M77.6445 58.916H77.6545" stroke="#3C4B5D" stroke-width="2" stroke-linecap="round" stroke-linejoin="round"/>
</g>
<defs>
<filter id="filter0_d_969_26848" x="0" y="0" width="156" height="156" filterUnits="userSpaceOnUse" color-interpolation-filters="sRGB">
<feFlood flood-opacity="0" result="BackgroundImageFix"/>
<feColorMatrix in="SourceAlpha" type="matrix" values="0 0 0 0 0 0 0 0 0 0 0 0 0 0 0 0 0 0 127 0" result="hardAlpha"/>
<feOffset dy="24"/>
<feGaussianBlur stdDeviation="27"/>
<feComposite in2="hardAlpha" operator="out"/>
<feColorMatrix type="matrix" values="0 0 0 0 0.388235 0 0 0 0 0.435294 0 0 0 0 0.490196 0 0 0 0.4 0"/>
<feBlend mode="normal" in2="BackgroundImageFix" result="effect1_dropShadow_969_26848"/>
<feBlend mode="normal" in="SourceGraphic" in2="effect1_dropShadow_969_26848" result="shape"/>
</filter>
</defs>
</svg>
