<svg xmlns="http://www.w3.org/2000/svg" xml:space="preserve" width="256" height="256"><g style="stroke:none;stroke-width:0;stroke-dasharray:none;stroke-linecap:butt;stroke-linejoin:miter;stroke-miterlimit:10;fill:none;fill-rule:nonzero;opacity:1"><path d="M78.974 90H11.026C4.936 90 0 85.064 0 78.974V11.026C0 4.936 4.936 0 11.026 0h67.948C85.064 0 90 4.936 90 11.026v67.948C90 85.064 85.064 90 78.974 90z" style="stroke:none;stroke-width:1;stroke-dasharray:none;stroke-linecap:butt;stroke-linejoin:miter;stroke-miterlimit:10;fill:#000;fill-rule:nonzero;opacity:1" transform="matrix(2.81 0 0 2.81 1.407 1.407)"/><path d="M10.484 10.346v-.632a4.89 4.89 0 0 0-.662-.048 4.92 4.92 0 0 0-4.914 4.914c0 1.662.831 3.133 2.098 4.023a4.894 4.894 0 0 1-1.319-3.346 4.918 4.918 0 0 1 4.797-4.911" style="stroke:none;stroke-width:1;stroke-dasharray:none;stroke-linecap:butt;stroke-linejoin:miter;stroke-miterlimit:10;fill:#00f2ea;fill-rule:nonzero;opacity:1" transform="translate(-4.057 -4.057) scale(10.93)"/><path d="M10.6 17.501a2.246 2.246 0 0 0 2.24-2.16l.004-10.699h1.955a3.66 3.66 0 0 1-.063-.677h-2.67l-.005 10.699a2.244 2.244 0 0 1-2.24 2.159c-.363 0-.72-.088-1.041-.258a2.237 2.237 0 0 0 1.82.936m7.85-9.227V7.68a3.686 3.686 0 0 1-2.022-.601 3.712 3.712 0 0 0 2.022 1.195" style="stroke:none;stroke-width:1;stroke-dasharray:none;stroke-linecap:butt;stroke-linejoin:miter;stroke-miterlimit:10;fill:#00f2ea;fill-rule:nonzero;opacity:1" transform="translate(-4.057 -4.057) scale(10.93)"/><path d="M16.427 7.078a3.694 3.694 0 0 1-.913-2.435h-.715a3.72 3.72 0 0 0 1.628 2.435m-6.605 5.258a2.246 2.246 0 0 0-2.244 2.244 2.245 2.245 0 0 0 1.203 1.986 2.232 2.232 0 0 1-.425-1.309 2.246 2.246 0 0 1 2.244-2.244c.231 0 .453.038.662.104v-2.725a4.89 4.89 0 0 0-.662-.048c-.039 0-.077.002-.116.003v2.093a2.155 2.155 0 0 0-.662-.104" style="stroke:none;stroke-width:1;stroke-dasharray:none;stroke-linecap:butt;stroke-linejoin:miter;stroke-miterlimit:10;fill:#ff004f;fill-rule:nonzero;opacity:1" transform="translate(-4.057 -4.057) scale(10.93)"/><path d="M18.45 8.274v2.075a6.353 6.353 0 0 1-3.714-1.194v5.425a4.92 4.92 0 0 1-4.913 4.914 4.88 4.88 0 0 1-2.816-.891c.927 1 2.23 1.569 3.594 1.568a4.92 4.92 0 0 0 4.914-4.913V9.832a6.345 6.345 0 0 0 3.714 1.194v-2.67c-.268 0-.528-.029-.779-.082" style="stroke:none;stroke-width:1;stroke-dasharray:none;stroke-linecap:butt;stroke-linejoin:miter;stroke-miterlimit:10;fill:#ff004f;fill-rule:nonzero;opacity:1" transform="translate(-4.057 -4.057) scale(10.93)"/><path d="M14.735 14.58V9.154a6.347 6.347 0 0 0 3.714 1.194V8.274a3.71 3.71 0 0 1-2.022-1.196 3.722 3.722 0 0 1-1.629-2.435h-1.954l-.004 10.699a2.246 2.246 0 0 1-2.24 2.16 2.241 2.241 0 0 1-1.819-.935 2.245 2.245 0 0 1-1.203-1.986 2.246 2.246 0 0 1 2.244-2.244c.231 0 .452.038.662.104v-2.093a4.919 4.919 0 0 0-4.798 4.911 4.9 4.9 0 0 0 1.319 3.346c.824.58 1.808.891 2.816.89a4.922 4.922 0 0 0 4.914-4.915" style="stroke:none;stroke-width:1;stroke-dasharray:none;stroke-linecap:butt;stroke-linejoin:miter;stroke-miterlimit:10;fill:#fff;fill-rule:nonzero;opacity:1" transform="translate(-4.057 -4.057) scale(10.93)"/></g></svg>