<?xml version="1.0" encoding="UTF-8" standalone="no"?>
<!-- Created with Inkscape (http://www.inkscape.org/) -->

<svg
   xmlns:dc="http://purl.org/dc/elements/1.1/"
   xmlns:cc="http://creativecommons.org/ns#"
   xmlns:rdf="http://www.w3.org/1999/02/22-rdf-syntax-ns#"
   xmlns:svg="http://www.w3.org/2000/svg"
   xmlns="http://www.w3.org/2000/svg"
   xmlns:sodipodi="http://sodipodi.sourceforge.net/DTD/sodipodi-0.dtd"
   xmlns:inkscape="http://www.inkscape.org/namespaces/inkscape"
   width="96.849998mm"
   height="26.064075mm"
   viewBox="0 0 96.849998 26.064075"
   version="1.1"
   id="svg8"
   sodipodi:docname="stripe-credit-cards-inkscape.svg"
   inkscape:version="0.92.2 (5c3e80d, 2017-08-06)">
  <defs
     id="defs2">
    <linearGradient
       id="SVGID_1_-8"
       gradientUnits="userSpaceOnUse"
       x1="224.39169"
       y1="44.1731"
       x2="201.33"
       y2="80.280701"
       gradientTransform="matrix(1,0,0,-1,0,141.7323)">
      <stop
         offset="0"
         style="stop-color:#F89F21"
         id="stop3778-3" />
      <stop
         offset="0.2502"
         style="stop-color:#F79A23"
         id="stop3780-5" />
      <stop
         offset="0.5331"
         style="stop-color:#F78E22"
         id="stop3782-2" />
      <stop
         offset="0.6196"
         style="stop-color:#F68721"
         id="stop3784-2" />
      <stop
         offset="0.7232"
         style="stop-color:#F48220"
         id="stop3786-6" />
      <stop
         offset="1"
         style="stop-color:#F27623"
         id="stop3788-6" />
    </linearGradient>
    <linearGradient
       id="SVGID_2_-7"
       gradientUnits="userSpaceOnUse"
       x1="220.7487"
       y1="44.664001"
       x2="187.04359"
       y2="110.5426"
       gradientTransform="matrix(1,0,0,-1,0,141.7323)">
      <stop
         offset="0"
         style="stop-color:#F68721;stop-opacity:0"
         id="stop3793-8" />
      <stop
         offset="0.3587"
         style="stop-color:#E27027;stop-opacity:0.2704"
         id="stop3795-4" />
      <stop
         offset="0.703"
         style="stop-color:#D4612C;stop-opacity:0.5299"
         id="stop3797-1" />
      <stop
         offset="0.9816"
         style="stop-color:#D15D2D;stop-opacity:0.74"
         id="stop3799-7" />
    </linearGradient>
    <linearGradient
       id="SVGID_1_-8-9"
       gradientUnits="userSpaceOnUse"
       x1="224.39169"
       y1="44.1731"
       x2="201.33"
       y2="80.280701"
       gradientTransform="matrix(1,0,0,-1,0,141.7323)">
      <stop
         offset="0"
         style="stop-color:#F89F21"
         id="stop3778-3-3" />
      <stop
         offset="0.2502"
         style="stop-color:#F79A23"
         id="stop3780-5-8" />
      <stop
         offset="0.5331"
         style="stop-color:#F78E22"
         id="stop3782-2-0" />
      <stop
         offset="0.6196"
         style="stop-color:#F68721"
         id="stop3784-2-2" />
      <stop
         offset="0.7232"
         style="stop-color:#F48220"
         id="stop3786-6-4" />
      <stop
         offset="1"
         style="stop-color:#F27623"
         id="stop3788-6-8" />
    </linearGradient>
    <linearGradient
       id="SVGID_2_-7-3"
       gradientUnits="userSpaceOnUse"
       x1="220.7487"
       y1="44.664001"
       x2="187.04359"
       y2="110.5426"
       gradientTransform="matrix(1,0,0,-1,0,141.7323)">
      <stop
         offset="0"
         style="stop-color:#F68721;stop-opacity:0"
         id="stop3793-8-9" />
      <stop
         offset="0.3587"
         style="stop-color:#E27027;stop-opacity:0.2704"
         id="stop3795-4-0" />
      <stop
         offset="0.703"
         style="stop-color:#D4612C;stop-opacity:0.5299"
         id="stop3797-1-5" />
      <stop
         offset="0.9816"
         style="stop-color:#D15D2D;stop-opacity:0.74"
         id="stop3799-7-2" />
    </linearGradient>
    <linearGradient
       id="SVGID_1_-8-9-3"
       gradientUnits="userSpaceOnUse"
       x1="224.39169"
       y1="44.1731"
       x2="201.33"
       y2="80.280701"
       gradientTransform="matrix(1,0,0,-1,0,141.7323)">
      <stop
         offset="0"
         style="stop-color:#F89F21"
         id="stop3778-3-3-2" />
      <stop
         offset="0.2502"
         style="stop-color:#F79A23"
         id="stop3780-5-8-5" />
      <stop
         offset="0.5331"
         style="stop-color:#F78E22"
         id="stop3782-2-0-6" />
      <stop
         offset="0.6196"
         style="stop-color:#F68721"
         id="stop3784-2-2-3" />
      <stop
         offset="0.7232"
         style="stop-color:#F48220"
         id="stop3786-6-4-4" />
      <stop
         offset="1"
         style="stop-color:#F27623"
         id="stop3788-6-8-0" />
    </linearGradient>
    <linearGradient
       id="SVGID_2_-7-3-6"
       gradientUnits="userSpaceOnUse"
       x1="220.7487"
       y1="44.664001"
       x2="187.04359"
       y2="110.5426"
       gradientTransform="matrix(1,0,0,-1,0,141.7323)">
      <stop
         offset="0"
         style="stop-color:#F68721;stop-opacity:0"
         id="stop3793-8-9-0" />
      <stop
         offset="0.3587"
         style="stop-color:#E27027;stop-opacity:0.2704"
         id="stop3795-4-0-4" />
      <stop
         offset="0.703"
         style="stop-color:#D4612C;stop-opacity:0.5299"
         id="stop3797-1-5-0" />
      <stop
         offset="0.9816"
         style="stop-color:#D15D2D;stop-opacity:0.74"
         id="stop3799-7-2-5" />
    </linearGradient>
  </defs>
  <sodipodi:namedview
     id="base"
     pagecolor="#ffffff"
     bordercolor="#666666"
     borderopacity="1.0"
     inkscape:pageopacity="0.0"
     inkscape:pageshadow="2"
     inkscape:zoom="1.3392542"
     inkscape:cx="144.48474"
     inkscape:cy="73.086184"
     inkscape:document-units="mm"
     inkscape:current-layer="layer1"
     showgrid="false"
     inkscape:window-width="1228"
     inkscape:window-height="686"
     inkscape:window-x="0"
     inkscape:window-y="23"
     inkscape:window-maximized="0"
     showguides="true"
     inkscape:guide-bbox="true" />
  <metadata
     id="metadata5">
    <rdf:RDF>
      <cc:Work
         rdf:about="">
        <dc:format>image/svg+xml</dc:format>
        <dc:type
           rdf:resource="http://purl.org/dc/dcmitype/StillImage" />
        <dc:title></dc:title>
      </cc:Work>
    </rdf:RDF>
  </metadata>
  <g
     inkscape:label="Layer 1"
     inkscape:groupmode="layer"
     id="layer1"
     transform="translate(-54.066745,-32.781678)">
    <g
       id="g80-7-7"
       transform="matrix(1.9639206,0,0,1.9639206,4.8137122,-107.80958)">
      <g
         transform="matrix(0.26458333,0,0,0.26458333,26.333932,77.250079)"
         id="g3728-8-9">
        <path
           inkscape:connector-curvature="0"
           d="M 0,1.927 C 0,0.863 0.892,0 1.992,0 H 38.008 C 39.108,0 40,0.863 40,1.927 V 22.073 C 40,23.137 39.108,24 38.008,24 H 1.992 C 0.892,24 0,23.137 0,22.073 Z"
           style="fill:#21569a"
           id="path3714-7-0" />
        <path
           inkscape:connector-curvature="0"
           d="m 19.596,7.885 -2.11,9.478 H 14.93 l 2.11,-9.478 h 2.554 z m 10.743,6.12 1.343,-3.56 0.773,3.56 H 30.34 Z m 2.85,3.358 h 2.36 L 33.486,7.885 H 31.31 c -0.492,0 -0.905,0.274 -1.088,0.695 l -3.832,8.783 h 2.682 l 0.532,-1.415 h 3.276 l 0.31,1.415 z m -6.667,-3.094 c 0.01,-2.502 -3.6,-2.64 -3.577,-3.76 0.008,-0.338 0.345,-0.7 1.083,-0.793 0.365,-0.045 1.373,-0.08 2.517,0.425 l 0.448,-2.01 c -0.615,-0.214 -1.405,-0.42 -2.39,-0.42 -2.523,0 -4.3,1.288 -4.313,3.133 -0.016,1.364 1.268,2.125 2.234,2.58 0.996,0.464 1.33,0.762 1.325,1.177 -0.006,0.636 -0.793,0.918 -1.526,0.928 -1.285,0.02 -2.03,-0.333 -2.623,-0.6 l -0.462,2.08 c 0.598,0.262 1.7,0.49 2.84,0.502 2.682,0 4.437,-1.273 4.445,-3.243 z M 15.948,7.884 11.81,17.362 H 9.11 L 7.076,9.8 C 6.953,9.334 6.846,9.163 6.47,8.966 5.855,8.646 4.84,8.346 3.95,8.16 L 4.01,7.885 h 4.345 c 0.554,0 1.052,0.354 1.178,0.966 l 1.076,5.486 2.655,-6.45 h 2.683 z"
           style="fill:#ffffff"
           id="path3716-7-2" />
      </g>
      <g
         transform="matrix(0.26458333,0,0,0.26458333,62.555222,77.250079)"
         id="g3753-4-3">
        <path
           inkscape:connector-curvature="0"
           d="M 0,1.927 C 0,0.863 0.892,0 1.992,0 H 38.008 C 39.108,0 40,0.863 40,1.927 V 22.073 C 40,23.137 39.108,24 38.008,24 H 1.992 C 0.892,24 0,23.137 0,22.073 Z"
           style="fill:#3e3939"
           id="path3730-4-9" />
        <path
           inkscape:connector-curvature="0"
           style="fill:#ff5f00"
           d="m 22.205,3.901 h -6.517 v 11.688 h 6.517"
           id="path3732-9-9" />
        <path
           inkscape:connector-curvature="0"
           d="m 16.1,9.747 c 0,-2.376 1.118,-4.482 2.835,-5.846 -1.265,-0.989 -2.857,-1.589 -4.593,-1.589 -4.119,0 -7.45,3.324 -7.45,7.434 0,4.107 3.331,7.432 7.45,7.432 1.736,0 3.328,-0.598 4.593,-1.59 -1.719,-1.342 -2.836,-3.469 -2.836,-5.843 z"
           style="fill:#eb001b"
           id="path3734-1-7" />
        <path
           inkscape:connector-curvature="0"
           d="m 30.996,9.747 c 0,4.107 -3.333,7.432 -7.449,7.432 -1.737,0 -3.331,-0.598 -4.593,-1.59 1.737,-1.362 2.834,-3.469 2.834,-5.843 0,-2.376 -1.117,-4.482 -2.834,-5.846 1.262,-0.989 2.856,-1.589 4.593,-1.589 4.116,0 7.449,3.346 7.449,7.434 z"
           style="fill:#f79e1b"
           id="path3736-5-0" />
        <path
           inkscape:connector-curvature="0"
           d="M 7.167,22.481 V 20.43 c 0,-0.789 -0.482,-1.303 -1.31,-1.303 -0.414,0 -0.864,0.135 -1.174,0.583 -0.243,-0.378 -0.587,-0.583 -1.104,-0.583 -0.346,0 -0.691,0.103 -0.967,0.48 v -0.41 H 1.886 v 3.284 h 0.726 v -1.813 c 0,-0.582 0.309,-0.856 0.794,-0.856 0.482,0 0.725,0.309 0.725,0.857 v 1.812 h 0.725 v -1.813 c 0,-0.582 0.348,-0.856 0.795,-0.856 0.486,0 0.726,0.309 0.726,0.857 v 1.812 h 0.794 z m 10.742,-3.284 h -1.175 v -0.993 h -0.727 v 0.993 h -0.655 v 0.648 h 0.655 v 1.506 c 0,0.755 0.312,1.2 1.139,1.2 0.313,0 0.658,-0.102 0.898,-0.242 l -0.205,-0.614 c -0.207,0.136 -0.45,0.172 -0.623,0.172 -0.344,0 -0.482,-0.207 -0.482,-0.548 v -1.472 h 1.175 v -0.649 z m 6.144,-0.07 c -0.414,0 -0.689,0.205 -0.862,0.48 v -0.41 h -0.726 v 3.284 h 0.726 v -1.848 c 0,-0.547 0.243,-0.856 0.691,-0.856 0.136,0 0.31,0.035 0.448,0.07 l 0.208,-0.685 c -0.137,-0.035 -0.346,-0.035 -0.486,-0.035 z m -9.288,0.342 c -0.345,-0.24 -0.828,-0.342 -1.347,-0.342 -0.83,0 -1.382,0.411 -1.382,1.061 0,0.548 0.417,0.856 1.139,0.958 l 0.349,0.035 c 0.379,0.068 0.584,0.17 0.584,0.342 0,0.242 -0.276,0.411 -0.758,0.411 -0.486,0 -0.866,-0.17 -1.106,-0.342 l -0.346,0.547 c 0.38,0.272 0.896,0.41 1.415,0.41 0.967,0 1.518,-0.444 1.518,-1.061 0,-0.58 -0.448,-0.889 -1.139,-0.992 l -0.344,-0.034 c -0.311,-0.034 -0.553,-0.102 -0.553,-0.307 0,-0.241 0.243,-0.378 0.623,-0.378 0.412,0 0.827,0.172 1.035,0.275 l 0.311,-0.583 z m 19.268,-0.342 c -0.415,0 -0.691,0.205 -0.862,0.48 v -0.41 h -0.726 v 3.284 h 0.726 v -1.848 c 0,-0.547 0.243,-0.856 0.691,-0.856 0.136,0 0.308,0.035 0.445,0.07 l 0.208,-0.685 C 34.38,19.127 34.172,19.127 34.033,19.127 Z m -9.254,1.711 c 0,0.996 0.691,1.713 1.761,1.713 0.485,0 0.829,-0.102 1.175,-0.378 l -0.346,-0.58 c -0.277,0.205 -0.553,0.308 -0.865,0.308 -0.585,0 -0.999,-0.411 -0.999,-1.061 0,-0.614 0.414,-1.027 1.002,-1.06 0.309,0 0.585,0.103 0.862,0.309 l 0.346,-0.582 C 27.369,19.233 27.024,19.13 26.54,19.13 c -1.07,0 -1.761,0.72 -1.761,1.711 z m 6.699,0 v -1.64 H 30.75 v 0.41 c -0.24,-0.308 -0.585,-0.48 -1.033,-0.48 -0.933,0 -1.659,0.72 -1.659,1.712 0,0.995 0.726,1.712 1.658,1.712 0.481,0 0.827,-0.17 1.032,-0.478 v 0.41 h 0.729 V 20.84 Z m -2.66,0 c 0,-0.579 0.378,-1.059 1.001,-1.059 0.587,0 1.002,0.445 1.002,1.061 0,0.584 -0.415,1.062 -1.002,1.062 -0.623,-0.033 -1.001,-0.478 -1.001,-1.061 z m -8.67,-1.71 c -0.965,0 -1.654,0.685 -1.654,1.712 0,1.029 0.689,1.712 1.691,1.712 0.486,0 0.969,-0.135 1.348,-0.444 l -0.345,-0.513 c -0.274,0.204 -0.623,0.342 -0.966,0.342 -0.45,0 -0.899,-0.205 -1.003,-0.788 h 2.452 V 20.878 C 21.705,19.815 21.083,19.13 20.15,19.13 Z m 0,0.62 c 0.452,0 0.763,0.271 0.832,0.784 h -1.727 c 0.068,-0.445 0.38,-0.784 0.895,-0.784 z m 17.993,1.092 v -2.942 h -0.729 v 1.712 c -0.239,-0.308 -0.584,-0.48 -1.032,-0.48 -0.934,0 -1.659,0.72 -1.659,1.711 0,0.996 0.725,1.713 1.658,1.713 0.482,0 0.827,-0.171 1.031,-0.478 v 0.41 h 0.73 v -1.645 z m -2.66,0 c 0,-0.579 0.38,-1.06 1.003,-1.06 0.585,0 1.002,0.446 1.002,1.061 0,0.585 -0.417,1.063 -1.002,1.063 -0.623,-0.034 -1.003,-0.478 -1.003,-1.061 z m -24.244,0 V 19.2 h -0.722 v 0.41 c -0.243,-0.308 -0.587,-0.48 -1.037,-0.48 -0.933,0 -1.658,0.72 -1.658,1.711 0,0.996 0.725,1.713 1.657,1.713 0.483,0 0.827,-0.171 1.035,-0.478 v 0.41 h 0.724 v -1.645 z m -2.691,0 c 0,-0.579 0.38,-1.06 1.002,-1.06 0.586,0 1.002,0.446 1.002,1.061 0,0.585 -0.416,1.063 -1.002,1.063 C 8.926,21.87 8.546,21.426 8.546,20.843 Z"
           style="fill:#ffffff"
           id="path3738-5-3" />
      </g>
      <g
         transform="matrix(0.26458333,0,0,0.26458333,38.407607,77.250079)"
         id="g3772-5-9">
        <path
           inkscape:connector-curvature="0"
           d="M 38.333,24 H 1.667 C 0.75,24 0,23.28 0,22.4 V 1.6 C 0,0.72 0.75,0 1.667,0 H 38.333 C 39.25,0 40,0.72 40,1.6 v 20.8 c 0,0.88 -0.75,1.6 -1.667,1.6 z"
           style="fill:#1477be"
           id="path3755-8-8" />
        <path
           inkscape:connector-curvature="0"
           d="M 6.26,12.32 H 8.573 L 7.415,9.66 m 19.938,0.317 h -3.738 v 1.23 h 3.666 v 1.384 h -3.675 v 1.385 h 3.821 v 1.005 c 0.623,-0.77 1.33,-1.466 2.025,-2.235 l 0.707,-0.77 c -0.934,-1.004 -1.87,-2.08 -2.804,-3.075 v 1.077 z"
           style="fill:#ffffff"
           id="path3757-2-6" />
        <path
           inkscape:connector-curvature="0"
           d="M 38.25,7 H 32.645 L 31.317,8.4 30.072,7 H 16.984 L 15.967,9.416 14.877,7 H 5.297 L 1.25,16.5 h 4.826 l 0.623,-1.556 h 1.4 L 8.722,16.5 H 29.99 l 1.327,-1.483 1.328,1.483 H 38.25 L 33.89,11.833 Z M 20.565,15.1 H 19.008 V 9.883 L 16.673,15.1 h -1.33 L 13.01,9.883 12.926,15.1 H 9.73 L 9.107,13.544 H 5.837 L 5.132,15.1 H 3.42 L 6.304,8.328 h 2.42 l 2.645,6.233 V 8.33 h 2.646 l 2.107,4.51 1.868,-4.51 h 2.575 z m 14.727,0 H 33.268 L 31.244,12.84 29.221,15.1 H 22.06 V 8.328 h 7.47 l 1.795,2.177 2.024,-2.177 h 2.025 L 32.26,11.75 Z"
           style="fill:#ffffff"
           id="path3759-9-5" />
      </g>
      <g
         transform="matrix(0.26458333,0,0,0.26458333,50.481415,77.246155)"
         id="g3840-8-7">
        <path
           inkscape:connector-curvature="0"
           d="M 38.333,24 H 1.667 C 0.75,24 0,23.28 0,22.4 V 1.6 C 0,0.72 0.75,0 1.667,0 H 38.333 C 39.25,0 40,0.72 40,1.6 v 20.8 c 0,0.88 -0.75,1.6 -1.667,1.6 z"
           style="fill:#113152"
           id="path3774-2-6" />
        <path
           inkscape:connector-curvature="0"
           d="m 5.498,13.349 c -0.338,0.305 -0.776,0.438 -1.47,0.438 h -0.29 v -3.646 h 0.29 c 0.694,0 1.115,0.124 1.47,0.446 0.37,0.33 0.595,0.844 0.595,1.372 0,0.53 -0.224,1.06 -0.595,1.39 z M 4.243,9.206 H 2.666 v 5.515 h 1.57 c 0.833,0 1.435,-0.197 1.963,-0.637 0.63,-0.52 1,-1.305 1,-2.116 0,-1.628 -1.214,-2.762 -2.956,-2.762 z m 3.453,5.515 H 8.77 V 9.207 H 7.696 m 3.697,2.116 c -0.645,-0.24 -0.834,-0.397 -0.834,-0.695 0,-0.347 0.338,-0.61 0.8,-0.61 0.322,0 0.587,0.132 0.867,0.446 L 12.788,9.727 C 12.326,9.322 11.773,9.115 11.17,9.115 c -0.975,0 -1.718,0.678 -1.718,1.58 0,0.76 0.346,1.15 1.355,1.513 0.42,0.148 0.635,0.247 0.743,0.314 0.215,0.14 0.322,0.34 0.322,0.57 0,0.448 -0.354,0.78 -0.834,0.78 -0.51,0 -0.924,-0.258 -1.17,-0.736 l -0.695,0.67 c 0.495,0.726 1.09,1.05 1.907,1.05 1.116,0 1.9,-0.745 1.9,-1.812 0,-0.876 -0.363,-1.273 -1.585,-1.72 z m 1.923,0.645 c 0,1.62 1.27,2.877 2.907,2.877 0.462,0 0.858,-0.09 1.347,-0.32 v -1.267 c -0.43,0.43 -0.81,0.604 -1.297,0.604 -1.082,0 -1.85,-0.785 -1.85,-1.9 0,-1.06 0.792,-1.895 1.8,-1.895 0.512,0 0.9,0.183 1.347,0.62 V 9.421 c -0.472,-0.24 -0.86,-0.34 -1.322,-0.34 -1.627,0 -2.932,1.283 -2.932,2.887 z M 26.088,12.911 24.62,9.206 h -1.174 l 2.337,5.656 h 0.578 l 2.38,-5.655 h -1.165 m 1.65,5.514 h 3.046 v -0.934 h -1.973 v -1.488 h 1.9 v -0.934 h -1.9 v -1.224 h 1.973 V 9.206 h -3.046 m 5.147,2.539 h -0.314 v -1.67 h 0.33 c 0.67,0 1.034,0.28 1.034,0.818 0,0.554 -0.364,0.852 -1.05,0.852 z m 2.155,-0.91 c 0,-1.033 -0.71,-1.628 -1.95,-1.628 h -1.592 v 5.514 h 1.073 v -2.215 h 0.14 l 1.487,2.215 h 1.32 l -1.733,-2.323 c 0.81,-0.165 1.255,-0.72 1.255,-1.563 z"
           style="fill:#ffffff"
           id="path3776-0-2" />
        <g
           id="MarkingBase_1_-7-7"
           transform="matrix(0.089776,0,0,0.089776,2.192296,5.72498)">
          <linearGradient
             id="linearGradient4751"
             gradientUnits="userSpaceOnUse"
             x1="224.39169"
             y1="44.1731"
             x2="201.33"
             y2="80.280701"
             gradientTransform="matrix(1,0,0,-1,0,141.7323)">
            <stop
               offset="0"
               style="stop-color:#F89F21"
               id="stop125-0" />
            <stop
               offset="0.2502"
               style="stop-color:#F79A23"
               id="stop127-3" />
            <stop
               offset="0.5331"
               style="stop-color:#F78E22"
               id="stop129-9" />
            <stop
               offset="0.6196"
               style="stop-color:#F68721"
               id="stop131-9" />
            <stop
               offset="0.7232"
               style="stop-color:#F48220"
               id="stop133-9" />
            <stop
               offset="1"
               style="stop-color:#F27623"
               id="stop135-1" />
          </linearGradient>
          <circle
             style="fill:url(#SVGID_1_-8-9)"
             cx="207.343"
             cy="70.865997"
             r="33.306999"
             id="circle3791-4-7" />
          <linearGradient
             id="linearGradient4758"
             gradientUnits="userSpaceOnUse"
             x1="220.7487"
             y1="44.664001"
             x2="187.04359"
             y2="110.5426"
             gradientTransform="matrix(1,0,0,-1,0,141.7323)">
            <stop
               offset="0"
               style="stop-color:#F68721;stop-opacity:0"
               id="stop140-2" />
            <stop
               offset="0.3587"
               style="stop-color:#E27027;stop-opacity:0.2704"
               id="stop142-3" />
            <stop
               offset="0.703"
               style="stop-color:#D4612C;stop-opacity:0.5299"
               id="stop144-6" />
            <stop
               offset="0.9816"
               style="stop-color:#D15D2D;stop-opacity:0.74"
               id="stop146-5" />
          </linearGradient>
          <circle
             style="opacity:0.65;fill:url(#SVGID_2_-7-3)"
             cx="207.343"
             cy="70.865997"
             r="33.306999"
             id="circle3802-8-5" />
        </g>
        <g
           id="Orange_1_-5-8"
           enable-background="new    "
           transform="matrix(0.469224,0,0,0.469224,13.785085,6.199149)">
          <g
             id="Orange-8-1">
            <g
               id="g3807-3-4">
              <path
                 inkscape:connector-curvature="0"
                 d="m 13,38 c 20.1,0 40,0 40,0 1.7,0 3,-1.3 3,-3 V 18 c 0,0 -4.8,13.8 -43,20 z"
                 style="fill:#ff8126"
                 id="path3805-0-7" />
            </g>
          </g>
        </g>
      </g>
    </g>
    <path
       style="fill:none;stroke:#3e3939;stroke-width:0.12767312;stroke-miterlimit:4;stroke-dasharray:none;stroke-opacity:1"
       d="m 87.675078,38.684588 h 61.577832 c 0.8864,0 1.6,0.7136 1.6,1.6 v 16.89733 c 0,0.8864 -0.7136,1.6 -1.6,1.6 H 55.730582 c -0.8864,0 -1.6,-0.7136 -1.6,-1.6 v -16.89733 c 0,-0.8864 0.7136,-1.6 1.6,-1.6 h 4.33058"
       id="rect105"
       inkscape:connector-curvature="0"
       sodipodi:nodetypes="ccsssssssc" />
    <g
       id="Stripe-1-7"
       transform="matrix(0.14273844,0,0,0.14273844,73.002057,-1.2265915)">
      <path
         id="path3701-8-3"
         d="m 91.970224,274.98951 c 0,-12.14963 -5.88498,-21.73645 -17.13288,-21.73645 -11.29536,0 -18.12953,9.58682 -18.12953,21.64153 0,14.28531 8.06811,21.49916 19.64823,21.49916 5.64768,0 9.91904,-1.28141 13.14628,-3.08487 v -9.4919 c -3.22724,1.61362 -6.92908,2.61027 -11.62758,2.61027 -4.60357,0 -8.68508,-1.61362 -9.20714,-7.21384 h 23.2077 c 0,-0.61698 0.0949,-3.08487 0.0949,-4.2239 z m -23.445,-4.50865 c 0,-5.36293 3.27471,-7.59352 6.26466,-7.59352 2.89503,0 5.97989,2.23059 5.97989,7.59352 z m -30.13678,-17.2278 c -4.65103,0 -7.64098,2.18314 -9.30206,3.70184 l -0.61698,-2.94249 h -10.44109 v 55.33778 l 11.86488,-2.51535 0.0475,-13.43104 c 1.70854,1.23394 4.22389,2.98995 8.40033,2.98995 8.49525,0 16.23115,-6.83417 16.23115,-21.87883 -0.0475,-13.76326 -7.87828,-21.26186 -16.18369,-21.26186 z m -2.84757,32.6996 c -2.80011,0 -4.46119,-0.99665 -5.60022,-2.2306 l -0.0475,-17.60748 c 1.23395,-1.37632 2.94249,-2.32551 5.64768,-2.32551 4.31881,0 7.30876,4.84087 7.30876,11.05806 0,6.35958 -2.94249,11.10553 -7.30876,11.10553 z m -33.83863,-35.49971 11.91234,-2.56281 v -9.63428 l -11.91234,2.51535 z m 0,3.60692 h 11.91234 v 41.52706 H 1.702244 Z m -12.7666,3.512 -0.75935,-3.512 h -10.25126 v 41.52706 h 11.86488 v -28.14348 c 2.80011,-3.65438 7.54606,-2.98995 9.0173,-2.46789 v -10.91569 c -1.5187,-0.56951 -7.07146,-1.61362 -9.87157,3.512 z m -23.729753,-13.81071 -11.580118,2.46789 -0.04746,38.01506 c 0,7.02401 5.268005,12.1971 12.292011,12.1971 3.89168,0 6.73925,-0.7119 8.30541,-1.56617 v -9.63428 c -1.5187,0.61698 -9.017302,2.80011 -9.017302,-4.22389 v -16.84813 h 9.017302 v -10.10887 h -9.017302 z m -32.082623,22.35342 c 0,-1.85092 1.518704,-2.56281 4.034058,-2.56281 3.606922,0 8.163034,1.09157 11.769956,3.03741 V 255.4362 c -3.939139,-1.56617 -7.830818,-2.18314 -11.769956,-2.18314 -9.634279,0 -16.041312,5.03071 -16.041312,13.43104 0,13.09882 18.034611,11.0106 18.034611,16.65828 0,2.18314 -1.89838,2.89503 -4.556112,2.89503 -3.939139,0 -8.969846,-1.61362 -12.956444,-3.79676 v 11.29536 c 4.413733,1.89838 8.874926,2.7052 12.956444,2.7052 9.871576,0 16.658285,-4.88833 16.658285,-13.38358 -0.04746,-14.14294 -18.12953,-11.62758 -18.12953,-16.94305 z"
         class="st0"
         inkscape:connector-curvature="0"
         style="clip-rule:evenodd;fill:#6772e5;fill-rule:evenodd;stroke-width:0.47459501" />
    </g>
  </g>
  <style
     id="style3699">.st0{fill-rule:evenodd;clip-rule:evenodd;fill:#6772e5}</style>
</svg>
